<?xml version="1.0" encoding="utf-8"?>
<!-- Generator: Adobe Illustrator 24.0.1, SVG Export Plug-In . SVG Version: 6.00 Build 0)  -->
<svg version="1.1" id="Calque_1" shape-rendering="crispEdges"
	 xmlns="http://www.w3.org/2000/svg" xmlns:xlink="http://www.w3.org/1999/xlink" x="0px" y="0px" viewBox="0 0 16 25"
	 style="enable-background:new 0 0 16 25;" xml:space="preserve">
<style type="text/css">
	.st0{fill:#FAFEED;}
	.st1{fill:#76D136;}
	.st2{fill:#D6F446;}
	.st3{fill:#79CF38;}
	.st4{fill:#1D9E5B;}
	.st5{fill:#2462AF;}
	.st6{fill:#40299D;}
</style>
<rect x="2" class="st0" width="1" height="1"/>
<rect x="3" class="st0" width="1" height="1"/>
<rect x="4" class="st0" width="1" height="1"/>
<rect x="5" class="st0" width="1" height="1"/>
<rect x="6" class="st0" width="1" height="1"/>
<rect x="7" class="st0" width="1" height="1"/>
<rect x="8" class="st0" width="1" height="1"/>
<rect x="9" class="st0" width="1" height="1"/>
<rect x="10" class="st0" width="1" height="1"/>
<rect x="11" class="st0" width="1" height="1"/>
<rect x="12" class="st0" width="1" height="1"/>
<rect x="13" class="st0" width="1" height="1"/>
<rect x="1" y="1" class="st0" width="1" height="1"/>
<rect x="2" y="1" class="st1" width="1" height="1"/>
<rect x="3" y="1" class="st2" width="1" height="1"/>
<rect x="4" y="1" class="st2" width="1" height="1"/>
<rect x="5" y="1" class="st2" width="1" height="1"/>
<rect x="6" y="1" class="st2" width="1" height="1"/>
<rect x="7" y="1" class="st2" width="1" height="1"/>
<rect x="8" y="1" class="st2" width="1" height="1"/>
<rect x="9" y="1" class="st2" width="1" height="1"/>
<rect x="10" y="1" class="st2" width="1" height="1"/>
<rect x="11" y="1" class="st2" width="1" height="1"/>
<rect x="12" y="1" class="st2" width="1" height="1"/>
<rect x="13" y="1" class="st1" width="1" height="1"/>
<rect x="14" y="1" class="st0" width="1" height="1"/>
<rect y="2" class="st0" width="1" height="1"/>
<rect x="1" y="2" class="st3" width="1" height="1"/>
<rect x="2" y="2" class="st0" width="1" height="1"/>
<rect x="3" y="2" class="st1" width="1" height="1"/>
<rect x="4" y="2" class="st2" width="1" height="1"/>
<rect x="5" y="2" class="st2" width="1" height="1"/>
<rect x="6" y="2" class="st2" width="1" height="1"/>
<rect x="7" y="2" class="st2" width="1" height="1"/>
<rect x="8" y="2" class="st2" width="1" height="1"/>
<rect x="9" y="2" class="st2" width="1" height="1"/>
<rect x="10" y="2" class="st2" width="1" height="1"/>
<rect x="11" y="2" class="st2" width="1" height="1"/>
<rect x="12" y="2" class="st1" width="1" height="1"/>
<rect x="13" y="2" class="st0" width="1" height="1"/>
<rect x="14" y="2" class="st1" width="1" height="1"/>
<rect x="15" y="2" class="st4" width="1" height="1"/>
<rect y="3" class="st0" width="1" height="1"/>
<rect x="1" y="3" class="st3" width="1" height="1"/>
<rect x="2" y="3" class="st3" width="1" height="1"/>
<rect x="3" y="3" class="st0" width="1" height="1"/>
<rect x="4" y="3" class="st1" width="1" height="1"/>
<rect x="5" y="3" class="st2" width="1" height="1"/>
<rect x="6" y="3" class="st2" width="1" height="1"/>
<rect x="7" y="3" class="st2" width="1" height="1"/>
<rect x="8" y="3" class="st2" width="1" height="1"/>
<rect x="9" y="3" class="st2" width="1" height="1"/>
<rect x="10" y="3" class="st2" width="1" height="1"/>
<rect x="11" y="3" class="st1" width="1" height="1"/>
<rect x="12" y="3" class="st0" width="1" height="1"/>
<rect x="13" y="3" class="st1" width="1" height="1"/>
<rect x="14" y="3" class="st1" width="1" height="1"/>
<rect x="15" y="3" class="st4" width="1" height="1"/>
<rect y="4" class="st0" width="1" height="1"/>
<rect x="1" y="4" class="st3" width="1" height="1"/>
<rect x="2" y="4" class="st2" width="1" height="1"/>
<rect x="3" y="4" class="st3" width="1" height="1"/>
<rect x="4" y="4" class="st0" width="1" height="1"/>
<rect x="5" y="4" class="st1" width="1" height="1"/>
<rect x="6" y="4" class="st0" width="1" height="1"/>
<rect x="7" y="4" class="st0" width="1" height="1"/>
<rect x="8" y="4" class="st0" width="1" height="1"/>
<rect x="9" y="4" class="st1" width="1" height="1"/>
<rect x="10" y="4" class="st1" width="1" height="1"/>
<rect x="11" y="4" class="st0" width="1" height="1"/>
<rect x="12" y="4" class="st1" width="1" height="1"/>
<rect x="13" y="4" class="st4" width="1" height="1"/>
<rect x="14" y="4" class="st1" width="1" height="1"/>
<rect x="15" y="4" class="st4" width="1" height="1"/>
<rect y="5" class="st0" width="1" height="1"/>
<rect x="1" y="5" class="st2" width="1" height="1"/>
<rect x="2" y="5" class="st3" width="1" height="1"/>
<rect x="3" y="5" class="st2" width="1" height="1"/>
<rect x="4" y="5" class="st1" width="1" height="1"/>
<rect x="5" y="5" class="st2" width="1" height="1"/>
<rect x="6" y="5" class="st2" width="1" height="1"/>
<rect x="7" y="5" class="st2" width="1" height="1"/>
<rect x="8" y="5" class="st1" width="1" height="1"/>
<rect x="9" y="5" class="st2" width="1" height="1"/>
<rect x="10" y="5" class="st2" width="1" height="1"/>
<rect x="11" y="5" class="st1" width="1" height="1"/>
<rect x="12" y="5" class="st4" width="1" height="1"/>
<rect x="13" y="5" class="st4" width="1" height="1"/>
<rect x="14" y="5" class="st4" width="1" height="1"/>
<rect x="15" y="5" class="st5" width="1" height="1"/>
<rect y="6" class="st2" width="1" height="1"/>
<rect x="1" y="6" class="st3" width="1" height="1"/>
<rect x="2" y="6" class="st2" width="1" height="1"/>
<rect x="3" y="6" class="st3" width="1" height="1"/>
<rect x="4" y="6" class="st0" width="1" height="1"/>
<rect x="5" y="6" class="st2" width="1" height="1"/>
<rect x="6" y="6" class="st2" width="1" height="1"/>
<rect x="7" y="6" class="st1" width="1" height="1"/>
<rect x="8" y="6" class="st2" width="1" height="1"/>
<rect x="9" y="6" class="st1" width="1" height="1"/>
<rect x="10" y="6" class="st2" width="1" height="1"/>
<rect x="11" y="6" class="st1" width="1" height="1"/>
<rect x="12" y="6" class="st4" width="1" height="1"/>
<rect x="13" y="6" class="st4" width="1" height="1"/>
<rect x="14" y="6" class="st1" width="1" height="1"/>
<rect x="15" y="6" class="st4" width="1" height="1"/>
<rect y="7" class="st0" width="1" height="1"/>
<rect x="1" y="7" class="st2" width="1" height="1"/>
<rect x="2" y="7" class="st3" width="1" height="1"/>
<rect x="3" y="7" class="st3" width="1" height="1"/>
<rect x="4" y="7" class="st0" width="1" height="1"/>
<rect x="5" y="7" class="st2" width="1" height="1"/>
<rect x="6" y="7" class="st1" width="1" height="1"/>
<rect x="7" y="7" class="st2" width="1" height="1"/>
<rect x="8" y="7" class="st1" width="1" height="1"/>
<rect x="9" y="7" class="st1" width="1" height="1"/>
<rect x="10" y="7" class="st1" width="1" height="1"/>
<rect x="11" y="7" class="st4" width="1" height="1"/>
<rect x="12" y="7" class="st4" width="1" height="1"/>
<rect x="13" y="7" class="st1" width="1" height="1"/>
<rect x="14" y="7" class="st4" width="1" height="1"/>
<rect x="15" y="7" class="st5" width="1" height="1"/>
<rect y="8" class="st0" width="1" height="1"/>
<rect x="1" y="8" class="st3" width="1" height="1"/>
<rect x="2" y="8" class="st3" width="1" height="1"/>
<rect x="3" y="8" class="st3" width="1" height="1"/>
<rect x="4" y="8" class="st0" width="1" height="1"/>
<rect x="5" y="8" class="st1" width="1" height="1"/>
<rect x="6" y="8" class="st2" width="1" height="1"/>
<rect x="7" y="8" class="st1" width="1" height="1"/>
<rect x="8" y="8" class="st1" width="1" height="1"/>
<rect x="9" y="8" class="st1" width="1" height="1"/>
<rect x="10" y="8" class="st1" width="1" height="1"/>
<rect x="11" y="8" class="st4" width="1" height="1"/>
<rect x="12" y="8" class="st1" width="1" height="1"/>
<rect x="13" y="8" class="st4" width="1" height="1"/>
<rect x="14" y="8" class="st1" width="1" height="1"/>
<rect x="15" y="8" class="st5" width="1" height="1"/>
<rect y="9" class="st2" width="1" height="1"/>
<rect x="1" y="9" class="st3" width="1" height="1"/>
<rect x="2" y="9" class="st3" width="1" height="1"/>
<rect x="3" y="9" class="st3" width="1" height="1"/>
<rect x="4" y="9" class="st2" width="1" height="1"/>
<rect x="5" y="9" class="st2" width="1" height="1"/>
<rect x="6" y="9" class="st1" width="1" height="1"/>
<rect x="7" y="9" class="st1" width="1" height="1"/>
<rect x="8" y="9" class="st1" width="1" height="1"/>
<rect x="9" y="9" class="st1" width="1" height="1"/>
<rect x="10" y="9" class="st1" width="1" height="1"/>
<rect x="11" y="9" class="st5" width="1" height="1"/>
<rect x="12" y="9" class="st4" width="1" height="1"/>
<rect x="13" y="9" class="st1" width="1" height="1"/>
<rect x="14" y="9" class="st4" width="1" height="1"/>
<rect x="15" y="9" class="st5" width="1" height="1"/>
<rect y="10" class="st2" width="1" height="1"/>
<rect x="1" y="10" class="st3" width="1" height="1"/>
<rect x="2" y="10" class="st3" width="1" height="1"/>
<rect x="3" y="10" class="st3" width="1" height="1"/>
<rect x="4" y="10" class="st2" width="1" height="1"/>
<rect x="5" y="10" class="st1" width="1" height="1"/>
<rect x="6" y="10" class="st1" width="1" height="1"/>
<rect x="7" y="10" class="st1" width="1" height="1"/>
<rect x="8" y="10" class="st1" width="1" height="1"/>
<rect x="9" y="10" class="st1" width="1" height="1"/>
<rect x="10" y="10" class="st1" width="1" height="1"/>
<rect x="11" y="10" class="st4" width="1" height="1"/>
<rect x="12" y="10" class="st1" width="1" height="1"/>
<rect x="13" y="10" class="st4" width="1" height="1"/>
<rect x="14" y="10" class="st1" width="1" height="1"/>
<rect x="15" y="10" class="st5" width="1" height="1"/>
<rect y="11" class="st0" width="1" height="1"/>
<rect x="1" y="11" class="st3" width="1" height="1"/>
<rect x="2" y="11" class="st3" width="1" height="1"/>
<rect x="3" y="11" class="st3" width="1" height="1"/>
<rect x="4" y="11" class="st2" width="1" height="1"/>
<rect x="5" y="11" class="st1" width="1" height="1"/>
<rect x="6" y="11" class="st1" width="1" height="1"/>
<rect x="7" y="11" class="st1" width="1" height="1"/>
<rect x="8" y="11" class="st1" width="1" height="1"/>
<rect x="9" y="11" class="st1" width="1" height="1"/>
<rect x="10" y="11" class="st1" width="1" height="1"/>
<rect x="11" y="11" class="st5" width="1" height="1"/>
<rect x="12" y="11" class="st4" width="1" height="1"/>
<rect x="13" y="11" class="st1" width="1" height="1"/>
<rect x="14" y="11" class="st4" width="1" height="1"/>
<rect x="15" y="11" class="st5" width="1" height="1"/>
<rect y="12" class="st2" width="1" height="1"/>
<rect x="1" y="12" class="st3" width="1" height="1"/>
<rect x="2" y="12" class="st3" width="1" height="1"/>
<rect x="3" y="12" class="st3" width="1" height="1"/>
<rect x="4" y="12" class="st4" width="1" height="1"/>
<rect x="5" y="12" class="st1" width="1" height="1"/>
<rect x="6" y="12" class="st1" width="1" height="1"/>
<rect x="7" y="12" class="st1" width="1" height="1"/>
<rect x="8" y="12" class="st1" width="1" height="1"/>
<rect x="9" y="12" class="st1" width="1" height="1"/>
<rect x="10" y="12" class="st3" width="1" height="1"/>
<rect x="11" y="12" class="st5" width="1" height="1"/>
<rect x="12" y="12" class="st1" width="1" height="1"/>
<rect x="13" y="12" class="st4" width="1" height="1"/>
<rect x="14" y="12" class="st4" width="1" height="1"/>
<rect x="15" y="12" class="st5" width="1" height="1"/>
<rect y="13" class="st2" width="1" height="1"/>
<rect x="1" y="13" class="st3" width="1" height="1"/>
<rect x="2" y="13" class="st3" width="1" height="1"/>
<rect x="3" y="13" class="st3" width="1" height="1"/>
<rect x="4" y="13" class="st4" width="1" height="1"/>
<rect x="5" y="13" class="st1" width="1" height="1"/>
<rect x="6" y="13" class="st1" width="1" height="1"/>
<rect x="7" y="13" class="st1" width="1" height="1"/>
<rect x="8" y="13" class="st1" width="1" height="1"/>
<rect x="9" y="13" class="st3" width="1" height="1"/>
<rect x="10" y="13" class="st1" width="1" height="1"/>
<rect x="11" y="13" class="st6" width="1" height="1"/>
<rect x="12" y="13" class="st4" width="1" height="1"/>
<rect x="13" y="13" class="st4" width="1" height="1"/>
<rect x="14" y="13" class="st4" width="1" height="1"/>
<rect x="15" y="13" class="st5" width="1" height="1"/>
<rect y="14" class="st4" width="1" height="1"/>
<rect x="1" y="14" class="st3" width="1" height="1"/>
<rect x="2" y="14" class="st3" width="1" height="1"/>
<rect x="3" y="14" class="st3" width="1" height="1"/>
<rect x="4" y="14" class="st4" width="1" height="1"/>
<rect x="5" y="14" class="st1" width="1" height="1"/>
<rect x="6" y="14" class="st1" width="1" height="1"/>
<rect x="7" y="14" class="st1" width="1" height="1"/>
<rect x="8" y="14" class="st3" width="1" height="1"/>
<rect x="9" y="14" class="st1" width="1" height="1"/>
<rect x="10" y="14" class="st3" width="1" height="1"/>
<rect x="11" y="14" class="st5" width="1" height="1"/>
<rect x="12" y="14" class="st4" width="1" height="1"/>
<rect x="13" y="14" class="st4" width="1" height="1"/>
<rect x="14" y="14" class="st4" width="1" height="1"/>
<rect x="15" y="14" class="st6" width="1" height="1"/>
<rect y="15" class="st4" width="1" height="1"/>
<rect x="1" y="15" class="st3" width="1" height="1"/>
<rect x="2" y="15" class="st3" width="1" height="1"/>
<rect x="3" y="15" class="st3" width="1" height="1"/>
<rect x="4" y="15" class="st5" width="1" height="1"/>
<rect x="5" y="15" class="st1" width="1" height="1"/>
<rect x="6" y="15" class="st1" width="1" height="1"/>
<rect x="7" y="15" class="st3" width="1" height="1"/>
<rect x="8" y="15" class="st1" width="1" height="1"/>
<rect x="9" y="15" class="st3" width="1" height="1"/>
<rect x="10" y="15" class="st4" width="1" height="1"/>
<rect x="11" y="15" class="st5" width="1" height="1"/>
<rect x="12" y="15" class="st4" width="1" height="1"/>
<rect x="13" y="15" class="st4" width="1" height="1"/>
<rect x="14" y="15" class="st5" width="1" height="1"/>
<rect x="15" y="15" class="st6" width="1" height="1"/>
<rect y="16" class="st5" width="1" height="1"/>
<rect x="1" y="16" class="st3" width="1" height="1"/>
<rect x="2" y="16" class="st3" width="1" height="1"/>
<rect x="3" y="16" class="st3" width="1" height="1"/>
<rect x="4" y="16" class="st4" width="1" height="1"/>
<rect x="5" y="16" class="st1" width="1" height="1"/>
<rect x="6" y="16" class="st3" width="1" height="1"/>
<rect x="7" y="16" class="st1" width="1" height="1"/>
<rect x="8" y="16" class="st3" width="1" height="1"/>
<rect x="9" y="16" class="st4" width="1" height="1"/>
<rect x="10" y="16" class="st1" width="1" height="1"/>
<rect x="11" y="16" class="st6" width="1" height="1"/>
<rect x="12" y="16" class="st4" width="1" height="1"/>
<rect x="13" y="16" class="st5" width="1" height="1"/>
<rect x="14" y="16" class="st4" width="1" height="1"/>
<rect x="15" y="16" class="st6" width="1" height="1"/>
<rect y="17" class="st6" width="1" height="1"/>
<rect x="1" y="17" class="st4" width="1" height="1"/>
<rect x="2" y="17" class="st3" width="1" height="1"/>
<rect x="3" y="17" class="st4" width="1" height="1"/>
<rect x="4" y="17" class="st5" width="1" height="1"/>
<rect x="5" y="17" class="st3" width="1" height="1"/>
<rect x="6" y="17" class="st1" width="1" height="1"/>
<rect x="7" y="17" class="st3" width="1" height="1"/>
<rect x="8" y="17" class="st4" width="1" height="1"/>
<rect x="9" y="17" class="st1" width="1" height="1"/>
<rect x="10" y="17" class="st4" width="1" height="1"/>
<rect x="11" y="17" class="st6" width="1" height="1"/>
<rect x="12" y="17" class="st5" width="1" height="1"/>
<rect x="13" y="17" class="st4" width="1" height="1"/>
<rect x="14" y="17" class="st5" width="1" height="1"/>
<rect x="15" y="17" class="st6" width="1" height="1"/>
<rect y="18" class="st6" width="1" height="1"/>
<rect x="1" y="18" class="st4" width="1" height="1"/>
<rect x="2" y="18" class="st4" width="1" height="1"/>
<rect x="3" y="18" class="st3" width="1" height="1"/>
<rect x="4" y="18" class="st5" width="1" height="1"/>
<rect x="5" y="18" class="st4" width="1" height="1"/>
<rect x="6" y="18" class="st3" width="1" height="1"/>
<rect x="7" y="18" class="st4" width="1" height="1"/>
<rect x="8" y="18" class="st1" width="1" height="1"/>
<rect x="9" y="18" class="st4" width="1" height="1"/>
<rect x="10" y="18" class="st4" width="1" height="1"/>
<rect x="11" y="18" class="st6" width="1" height="1"/>
<rect x="12" y="18" class="st4" width="1" height="1"/>
<rect x="13" y="18" class="st5" width="1" height="1"/>
<rect x="14" y="18" class="st5" width="1" height="1"/>
<rect x="15" y="18" class="st6" width="1" height="1"/>
<rect y="19" class="st5" width="1" height="1"/>
<rect x="1" y="19" class="st4" width="1" height="1"/>
<rect x="2" y="19" class="st3" width="1" height="1"/>
<rect x="3" y="19" class="st4" width="1" height="1"/>
<rect x="4" y="19" class="st6" width="1" height="1"/>
<rect x="5" y="19" class="st4" width="1" height="1"/>
<rect x="6" y="19" class="st4" width="1" height="1"/>
<rect x="7" y="19" class="st1" width="1" height="1"/>
<rect x="8" y="19" class="st4" width="1" height="1"/>
<rect x="9" y="19" class="st4" width="1" height="1"/>
<rect x="10" y="19" class="st4" width="1" height="1"/>
<rect x="11" y="19" class="st6" width="1" height="1"/>
<rect x="12" y="19" class="st5" width="1" height="1"/>
<rect x="13" y="19" class="st5" width="1" height="1"/>
<rect x="14" y="19" class="st5" width="1" height="1"/>
<rect x="15" y="19" class="st6" width="1" height="1"/>
<rect y="20" class="st6" width="1" height="1"/>
<rect x="1" y="20" class="st3" width="1" height="1"/>
<rect x="2" y="20" class="st4" width="1" height="1"/>
<rect x="3" y="20" class="st5" width="1" height="1"/>
<rect x="4" y="20" class="st6" width="1" height="1"/>
<rect x="5" y="20" class="st6" width="1" height="1"/>
<rect x="6" y="20" class="st6" width="1" height="1"/>
<rect x="7" y="20" class="st6" width="1" height="1"/>
<rect x="8" y="20" class="st6" width="1" height="1"/>
<rect x="9" y="20" class="st6" width="1" height="1"/>
<rect x="10" y="20" class="st6" width="1" height="1"/>
<rect x="11" y="20" class="st6" width="1" height="1"/>
<rect x="12" y="20" class="st4" width="1" height="1"/>
<rect x="13" y="20" class="st5" width="1" height="1"/>
<rect x="14" y="20" class="st5" width="1" height="1"/>
<rect x="15" y="20" class="st6" width="1" height="1"/>
<rect y="21" class="st6" width="1" height="1"/>
<rect x="1" y="21" class="st4" width="1" height="1"/>
<rect x="2" y="21" class="st5" width="1" height="1"/>
<rect x="3" y="21" class="st6" width="1" height="1"/>
<rect x="4" y="21" class="st4" width="1" height="1"/>
<rect x="5" y="21" class="st5" width="1" height="1"/>
<rect x="6" y="21" class="st5" width="1" height="1"/>
<rect x="7" y="21" class="st5" width="1" height="1"/>
<rect x="8" y="21" class="st5" width="1" height="1"/>
<rect x="9" y="21" class="st5" width="1" height="1"/>
<rect x="10" y="21" class="st5" width="1" height="1"/>
<rect x="11" y="21" class="st4" width="1" height="1"/>
<rect x="12" y="21" class="st6" width="1" height="1"/>
<rect x="13" y="21" class="st4" width="1" height="1"/>
<rect x="14" y="21" class="st5" width="1" height="1"/>
<rect x="15" y="21" class="st6" width="1" height="1"/>
<rect y="22" class="st6" width="1" height="1"/>
<rect x="1" y="22" class="st5" width="1" height="1"/>
<rect x="2" y="22" class="st6" width="1" height="1"/>
<rect x="3" y="22" class="st4" width="1" height="1"/>
<rect x="4" y="22" class="st5" width="1" height="1"/>
<rect x="5" y="22" class="st5" width="1" height="1"/>
<rect x="6" y="22" class="st5" width="1" height="1"/>
<rect x="7" y="22" class="st5" width="1" height="1"/>
<rect x="8" y="22" class="st5" width="1" height="1"/>
<rect x="9" y="22" class="st5" width="1" height="1"/>
<rect x="10" y="22" class="st5" width="1" height="1"/>
<rect x="11" y="22" class="st5" width="1" height="1"/>
<rect x="12" y="22" class="st4" width="1" height="1"/>
<rect x="13" y="22" class="st6" width="1" height="1"/>
<rect x="14" y="22" class="st4" width="1" height="1"/>
<rect x="15" y="22" class="st6" width="1" height="1"/>
<rect x="1" y="23" class="st6" width="1" height="1"/>
<rect x="2" y="23" class="st4" width="1" height="1"/>
<rect x="3" y="23" class="st5" width="1" height="1"/>
<rect x="4" y="23" class="st5" width="1" height="1"/>
<rect x="5" y="23" class="st5" width="1" height="1"/>
<rect x="6" y="23" class="st5" width="1" height="1"/>
<rect x="7" y="23" class="st5" width="1" height="1"/>
<rect x="8" y="23" class="st5" width="1" height="1"/>
<rect x="9" y="23" class="st5" width="1" height="1"/>
<rect x="10" y="23" class="st5" width="1" height="1"/>
<rect x="11" y="23" class="st4" width="1" height="1"/>
<rect x="12" y="23" class="st4" width="1" height="1"/>
<rect x="13" y="23" class="st4" width="1" height="1"/>
<rect x="14" y="23" class="st6" width="1" height="1"/>
<rect x="2" y="24" class="st6" width="1" height="1"/>
<rect x="3" y="24" class="st6" width="1" height="1"/>
<rect x="4" y="24" class="st6" width="1" height="1"/>
<rect x="5" y="24" class="st6" width="1" height="1"/>
<rect x="6" y="24" class="st6" width="1" height="1"/>
<rect x="7" y="24" class="st6" width="1" height="1"/>
<rect x="8" y="24" class="st6" width="1" height="1"/>
<rect x="9" y="24" class="st6" width="1" height="1"/>
<rect x="10" y="24" class="st6" width="1" height="1"/>
<rect x="11" y="24" class="st6" width="1" height="1"/>
<rect x="12" y="24" class="st6" width="1" height="1"/>
<rect x="13" y="24" class="st6" width="1" height="1"/>
</svg>
