<?xml version="1.0" standalone="no"?>
<!DOCTYPE svg PUBLIC "-//W3C//DTD SVG 20010904//EN"
 "http://www.w3.org/TR/2001/REC-SVG-20010904/DTD/svg10.dtd">
<svg version="1.0" xmlns="http://www.w3.org/2000/svg"
 width="30.000000pt" height="54.000000pt" viewBox="0 0 30.000000 54.000000"
 preserveAspectRatio="xMidYMid meet">

<g transform="translate(0.000000,54.000000) scale(0.100000,-0.100000)"
fill="#000000" stroke="none">
<path d="M137 533 c-13 -13 -7 -23 16 -24 19 -1 18 -2 -6 -9 -43 -13 -55 -27
-67 -82 -6 -29 -15 -58 -22 -65 -6 -7 -12 -56 -14 -108 l-4 -95 30 0 c31 0 31
0 28 -52 -3 -51 -2 -53 25 -56 23 -3 27 0 27 21 0 49 20 87 46 87 21 0 24 -3
18 -26 -7 -29 7 -44 44 -44 22 0 30 14 13 25 -5 3 -7 20 -4 39 3 19 1 36 -6
40 -16 10 -13 43 4 50 20 7 19 24 -5 71 -24 47 -25 62 -4 104 l16 33 -50 49
c-47 46 -70 58 -85 42z m-2 -81 c-3 -3 -11 0 -18 7 -9 10 -8 11 6 5 10 -3 15
-9 12 -12z m42 -8 c-3 -3 -12 -4 -19 -1 -8 3 -5 6 6 6 11 1 17 -2 13 -5z m4
-74 c5 0 9 4 9 8 0 5 7 9 15 9 19 0 29 -28 14 -41 -9 -8 -10 -7 -6 6 5 15 2
16 -19 7 -31 -11 -43 -5 -39 19 5 27 7 28 12 10 2 -10 9 -18 14 -18z m5 -45
c14 -11 15 -14 4 -14 -8 0 -24 6 -34 14 -15 11 -16 15 -5 15 8 0 24 -7 35 -15z
m49 -4 c-3 -6 -11 -11 -17 -11 -6 0 -6 6 2 15 14 17 26 13 15 -4z m-120 -1 c3
-5 0 -10 -7 -10 -10 0 -10 -2 1 -9 11 -7 10 -11 -5 -20 -18 -10 -18 -10 -1
-11 10 0 17 -6 15 -12 -7 -21 -52 -16 -56 6 -3 11 0 16 7 12 7 -4 9 -1 5 8 -3
8 0 22 8 30 15 18 25 20 33 6z m85 -35 c0 -8 -6 -15 -14 -15 -8 0 -16 7 -20
15 -4 10 1 15 14 15 11 0 20 -7 20 -15z m34 0 c-4 -8 -10 -15 -15 -15 -5 0 -9
7 -9 15 0 8 7 15 15 15 9 0 12 -6 9 -15z m-84 -20 c0 -8 -4 -15 -10 -15 -5 0
-10 7 -10 15 0 8 5 15 10 15 6 0 10 -7 10 -15z m50 -20 c0 -10 -10 -15 -32
-15 -30 0 -31 1 -12 15 25 19 44 19 44 0z m34 0 c3 -9 0 -15 -9 -15 -8 0 -15
7 -15 15 0 8 4 15 9 15 5 0 11 -7 15 -15z m-34 -35 c0 -11 0 -11 -48 -13 -31
-2 -39 3 -25 16 10 11 73 8 73 -3z m37 4 c-3 -3 -12 -4 -19 -1 -8 3 -5 6 6 6
11 1 17 -2 13 -5z"/>
<path d="M167 49 c8 -8 16 -8 30 0 16 9 14 10 -11 11 -22 0 -27 -3 -19 -11z"/>
</g>
</svg>
