<?xml version="1.0" encoding="utf-8"?>
<!-- Generator: Adobe Illustrator 24.0.1, SVG Export Plug-In . SVG Version: 6.00 Build 0)  -->
<svg version="1.1" id="Calque_1" shape-rendering="crispEdges"
	 xmlns="http://www.w3.org/2000/svg" xmlns:xlink="http://www.w3.org/1999/xlink" x="0px" y="0px" viewBox="0 0 22 23"
	 style="enable-background:new 0 0 22 23;" xml:space="preserve" preserveAspectRatio="none">
<style type="text/css">
	.st0{fill:#302236;}
	.st1{fill:#8F3521;}
	.st2{fill:#BE391B;}
	.st3{fill:#45221B;}
	.st4{opacity:1.176500e-02;fill:#301234;enable-background:new    ;}
	.st5{fill:#43383A;}
	.st6{fill:#A3AB62;}
	.st7{fill:#FFFFFF;}
	.st8{fill:#FFCD48;}
	.st9{fill:#392D37;}
	.st10{fill:#75764A;}
	.st11{fill:#828551;}
	.st12{fill:#3F3C70;}
</style>
<rect x="3" class="st0" width="1" height="1"/>
<rect x="4" class="st0" width="1" height="1"/>
<rect x="5" class="st0" width="1" height="1"/>
<rect x="6" class="st0" width="1" height="1"/>
<rect x="7" class="st0" width="1" height="1"/>
<rect x="8" class="st0" width="1" height="1"/>
<rect x="9" class="st0" width="1" height="1"/>
<rect x="2" y="1" class="st0" width="1" height="1"/>
<rect x="3" y="1" class="st0" width="1" height="1"/>
<rect x="4" y="1" class="st1" width="1" height="1"/>
<rect x="5" y="1" class="st1" width="1" height="1"/>
<rect x="6" y="1" class="st1" width="1" height="1"/>
<rect x="7" y="1" class="st2" width="1" height="1"/>
<rect x="8" y="1" class="st2" width="1" height="1"/>
<rect x="9" y="1" class="st2" width="1" height="1"/>
<rect x="10" y="1" class="st0" width="1" height="1"/>
<rect x="2" y="2" class="st0" width="1" height="1"/>
<rect x="3" y="2" class="st2" width="1" height="1"/>
<rect x="4" y="2" class="st0" width="1" height="1"/>
<rect x="5" y="2" class="st0" width="1" height="1"/>
<rect x="6" y="2" class="st2" width="1" height="1"/>
<rect x="7" y="2" class="st2" width="1" height="1"/>
<rect x="8" y="2" class="st0" width="1" height="1"/>
<rect x="9" y="2" class="st0" width="1" height="1"/>
<rect x="10" y="2" class="st0" width="1" height="1"/>
<rect x="2" y="3" class="st0" width="1" height="1"/>
<rect x="3" y="3" class="st1" width="1" height="1"/>
<rect x="8" y="3" class="st1" width="1" height="1"/>
<rect x="9" y="3" class="st1" width="1" height="1"/>
<rect x="10" y="3" class="st0" width="1" height="1"/>
<rect x="1" y="4" class="st0" width="1" height="1"/>
<rect x="2" y="4" class="st2" width="1" height="1"/>
<rect x="3" y="4" class="st1" width="1" height="1"/>
<rect x="9" y="4" class="st1" width="1" height="1"/>
<rect x="10" y="4" class="st1" width="1" height="1"/>
<rect x="11" y="4" class="st0" width="1" height="1"/>
<rect x="1" y="5" class="st0" width="1" height="1"/>
<rect x="2" y="5" class="st0" width="1" height="1"/>
<rect x="3" y="5" class="st1" width="1" height="1"/>
<rect x="9" y="5" class="st0" width="1" height="1"/>
<rect x="10" y="5" class="st1" width="1" height="1"/>
<rect x="11" y="5" class="st2" width="1" height="1"/>
<rect x="12" y="5" class="st0" width="1" height="1"/>
<rect x="2" y="6" class="st0" width="1" height="1"/>
<rect x="9" y="6" class="st0" width="1" height="1"/>
<rect x="10" y="6" class="st2" width="1" height="1"/>
<rect x="11" y="6" class="st1" width="1" height="1"/>
<rect x="12" y="6" class="st0" width="1" height="1"/>
<rect x="13" y="6" class="st0" width="1" height="1"/>
<rect x="14" y="6" class="st0" width="1" height="1"/>
<rect x="15" y="6" class="st0" width="1" height="1"/>
<rect x="16" y="6" class="st1" width="1" height="1"/>
<rect x="17" y="6" class="st3" width="1" height="1"/>
<rect x="18" y="6" class="st1" width="1" height="1"/>
<rect x="19" y="6" class="st0" width="1" height="1"/>
<rect x="20" y="6" class="st0" width="1" height="1"/>
<rect x="2" y="7" class="st0" width="1" height="1"/>
<rect x="10" y="7" class="st0" width="1" height="1"/>
<rect x="11" y="7" class="st1" width="1" height="1"/>
<rect x="12" y="7" class="st3" width="1" height="1"/>
<rect x="13" y="7" class="st1" width="1" height="1"/>
<rect x="14" y="7" class="st2" width="1" height="1"/>
<rect x="15" y="7" class="st2" width="1" height="1"/>
<rect x="16" y="7" class="st3" width="1" height="1"/>
<rect x="17" y="7" class="st3" width="1" height="1"/>
<rect x="18" y="7" class="st3" width="1" height="1"/>
<rect x="19" y="7" class="st2" width="1" height="1"/>
<rect x="20" y="7" class="st1" width="1" height="1"/>
<rect x="21" y="7" class="st3" width="1" height="1"/>
<rect x="1" y="8" class="st4" width="1" height="1"/>
<rect x="14" y="8" class="st1" width="1" height="1"/>
<rect x="15" y="8" class="st0" width="1" height="1"/>
<rect x="16" y="8" class="st1" width="1" height="1"/>
<rect x="17" y="8" class="st3" width="1" height="1"/>
<rect x="18" y="8" class="st1" width="1" height="1"/>
<rect x="19" y="8" class="st0" width="1" height="1"/>
<rect x="20" y="8" class="st1" width="1" height="1"/>
<rect x="1" y="9" class="st0" width="1" height="1"/>
<rect x="1" y="10" class="st0" width="1" height="1"/>
<rect x="1" y="11" class="st0" width="1" height="1"/>
<rect x="2" y="13" class="st0" width="1" height="1"/>
<rect x="3" y="13" class="st1" width="1" height="1"/>
<rect x="4" y="13" class="st2" width="1" height="1"/>
<rect x="5" y="13" class="st2" width="1" height="1"/>
<rect x="2" y="14" class="st0" width="1" height="1"/>
<rect x="3" y="14" class="st0" width="1" height="1"/>
<rect x="4" y="14" class="st0" width="1" height="1"/>
<rect x="5" y="14" class="st0" width="1" height="1"/>
<rect x="3" y="15" class="st0" width="1" height="1"/>
<rect x="1" y="16" class="st5" width="1" height="1"/>
<rect x="2" y="16" class="st0" width="1" height="1"/>
<rect x="3" y="16" class="st0" width="1" height="1"/>
<rect x="4" y="16" class="st0" width="1" height="1"/>
<rect x="5" y="16" class="st5" width="1" height="1"/>
<rect x="2" y="17" class="st5" width="1" height="1"/>
<rect x="3" y="17" class="st6" width="1" height="1"/>
<rect x="4" y="17" class="st5" width="1" height="1"/>
<rect x="1" y="18" class="st0" width="1" height="1"/>
<rect x="2" y="18" class="st6" width="1" height="1"/>
<rect x="3" y="18" class="st7" width="1" height="1"/>
<rect x="4" y="18" class="st6" width="1" height="1"/>
<rect x="5" y="18" class="st0" width="1" height="1"/>
<rect x="1" y="19" class="st5" width="1" height="1"/>
<rect x="2" y="19" class="st6" width="1" height="1"/>
<rect x="3" y="19" class="st8" width="1" height="1"/>
<rect x="4" y="19" class="st6" width="1" height="1"/>
<rect x="5" y="19" class="st5" width="1" height="1"/>
<rect x="1" y="20" class="st9" width="1" height="1"/>
<rect x="2" y="20" class="st10" width="1" height="1"/>
<rect x="3" y="20" class="st11" width="1" height="1"/>
<rect x="4" y="20" class="st10" width="1" height="1"/>
<rect x="5" y="20" class="st9" width="1" height="1"/>
<rect y="21" class="st0" width="1" height="1"/>
<rect x="1" y="21" class="st9" width="1" height="1"/>
<rect x="2" y="21" class="st0" width="1" height="1"/>
<rect x="3" y="21" class="st9" width="1" height="1"/>
<rect x="4" y="21" class="st0" width="1" height="1"/>
<rect x="5" y="21" class="st9" width="1" height="1"/>
<rect x="6" y="21" class="st0" width="1" height="1"/>
<rect x="1" y="22" class="st0" width="1" height="1"/>
<rect x="2" y="22" class="st12" width="1" height="1"/>
<rect x="3" y="22" class="st12" width="1" height="1"/>
<rect x="4" y="22" class="st12" width="1" height="1"/>
<rect x="5" y="22" class="st0" width="1" height="1"/>
</svg>
