<?xml version="1.0" encoding="utf-8"?>
<!-- Generator: Adobe Illustrator 24.0.1, SVG Export Plug-In . SVG Version: 6.00 Build 0)  -->
<svg version="1.1" id="Calque_1" xmlns="http://www.w3.org/2000/svg" xmlns:xlink="http://www.w3.org/1999/xlink" x="0px" y="0px"
	 viewBox="0 0 1131 188" style="enable-background:new 0 0 1131 188;" xml:space="preserve" preserveAspectRatio="none">
<style type="text/css">
	.st0{fill:#343334;}
	.st1{fill:#AEADAE;}
	.st2{fill:#FFFFFF;}
</style>
<g>
	<g id="XMLID_1_">
		<g>
			<polygon class="st0" points="1130.8,99.5 1130.8,109.3 1121,109.3 1120.9,109.3 1120.9,99.5 			"/>
			<rect x="1120.9" y="99.4" class="st0" width="9.9" height="0.1"/>
			<rect x="1120.9" y="89.6" class="st0" width="9.9" height="9.8"/>
			<rect x="1120.9" y="79.7" class="st0" width="9.9" height="9.9"/>
			<rect x="1120.9" y="69.8" class="st0" width="9.9" height="9.9"/>
			<rect x="1120.9" y="60" class="st0" width="9.9" height="9.8"/>
			<rect x="1120.9" y="59.9" class="st0" width="9.9" height="0.1"/>
			<rect x="1120.9" y="50.1" class="st0" width="9.9" height="9.8"/>
			<polygon class="st0" points="1130.8,40.2 1130.8,50.1 1120.9,50.1 1120.9,40.2 1121,40.2 			"/>
			<rect x="1111.1" y="119.2" class="st1" width="9.9" height="9.9"/>
			<polygon class="st0" points="1121,109.3 1121,119.2 1111.1,119.2 1111.1,109.3 1120.9,109.3 			"/>
			<polygon class="st0" points="1121,30.3 1121,40.2 1120.9,40.2 1111.1,40.2 1111.1,30.3 			"/>
			<polygon class="st2" points="1120.9,99.5 1120.9,109.3 1111.1,109.3 1111.1,119.2 1101.2,119.2 1101.2,129.1 1091.3,129.1 
				1091.3,138.9 1081.4,138.9 1071.6,138.9 1071.5,138.9 1061.7,138.9 1061.6,138.9 1061.6,138.8 1051.7,138.8 1041.9,138.8 
				1041.8,138.8 1032,138.8 1026.6,138.8 1022.1,138.8 1012.2,138.8 1002.3,138.8 870.3,138.8 714,138.8 557.8,138.8 401.5,138.8 
				245.3,138.8 89,138.8 89,148.6 89,148.7 89,148.8 79.2,148.8 79.2,158.7 69.3,158.7 69.3,168.6 59.4,168.6 59.4,158.7 
				59.4,148.8 59.4,138.9 49.6,138.9 49.6,129.1 39.7,129.1 39.7,119.2 29.8,119.2 29.8,109.3 19.9,109.3 19.9,99.5 19.9,99.4 
				19.9,89.6 19.9,79.7 19.9,69.8 19.9,60 19.9,59.9 19.9,50.1 19.9,40.2 29.8,40.2 29.8,30.3 39.7,30.3 39.7,20.5 49.6,20.5 
				49.6,10.6 59.4,10.6 69.3,10.6 79.2,10.6 89.1,10.6 89.1,10.4 245.3,10.4 401.5,10.4 557.8,10.4 714,10.4 840,10.4 840,10.9 
				876.1,10.9 912,10.9 912.1,10.9 948.1,10.9 948.1,10.4 948.2,10.4 948.2,10.9 984.1,10.9 984.2,10.9 1020.2,10.9 1056.3,10.9 
				1056.3,10.6 1061.7,10.6 1071.5,10.6 1071.6,10.6 1081.4,10.6 1091.3,10.6 1091.3,20.5 1101.2,20.5 1101.2,30.3 1111.1,30.3 
				1111.1,40.2 1120.9,40.2 1120.9,50.1 1120.9,59.9 1120.9,60 1120.9,69.8 1120.9,79.7 1120.9,89.6 1120.9,99.4 			"/>
			<polygon class="st1" points="1111.1,129.1 1111.1,139 1101.2,139 1101.2,138.9 1101.2,129.1 			"/>
			<rect x="1101.2" y="119.2" class="st0" width="9.9" height="9.9"/>
			<polygon class="st0" points="1111.1,20.4 1111.1,30.3 1101.2,30.3 1101.2,20.5 1101.2,20.4 			"/>
			<rect x="1091.3" y="139" class="st1" width="9.9" height="9.8"/>
			<rect x="1091.3" y="138.9" class="st0" width="9.9" height="0.1"/>
			<rect x="1091.3" y="129.1" class="st0" width="9.9" height="9.8"/>
			<polygon class="st0" points="1101.2,20.4 1101.2,20.5 1091.3,20.5 1091.3,10.6 1101.2,10.6 			"/>
			<polygon class="st0" points="1091.3,139 1091.3,148.8 1081.4,148.8 1081.4,138.9 1091.3,138.9 			"/>
			<rect x="1081.4" y="0.7" class="st0" width="9.9" height="9.9"/>
			<rect x="1071.6" y="148.8" class="st1" width="9.8" height="9.9"/>
			<rect x="1071.6" y="138.9" class="st0" width="9.8" height="9.9"/>
			<rect x="1071.6" y="0.7" class="st0" width="9.8" height="9.9"/>
			<rect x="1071.5" y="148.8" class="st1" width="0.1" height="9.9"/>
			<rect x="1071.5" y="138.9" class="st0" width="0.1" height="9.9"/>
			<rect x="1071.5" y="0.7" class="st0" width="0.1" height="9.9"/>
			<rect x="1061.7" y="148.8" class="st1" width="9.8" height="9.9"/>
			<rect x="1061.7" y="138.9" class="st0" width="9.8" height="9.9"/>
			<rect x="1061.7" y="0.7" class="st0" width="9.8" height="9.9"/>
			<polygon class="st1" points="1061.7,148.8 1061.7,158.7 1051.8,158.7 1051.8,149.2 1056.3,149.2 1056.3,148.8 			"/>
			<polygon class="st0" points="1061.7,138.9 1061.7,148.8 1056.3,148.8 1056.3,148.7 1061.6,148.7 1061.6,138.9 			"/>
			<polygon class="st0" points="1061.7,0.7 1061.7,10.6 1056.3,10.6 1056.3,10.4 1061.6,10.4 1061.6,0.7 			"/>
			<polygon class="st0" points="1061.6,138.9 1061.6,148.7 1056.3,148.7 1056.3,139.3 1051.8,139.3 1051.8,138.9 			"/>
			<polygon class="st0" points="1061.6,138.8 1061.6,138.9 1051.8,138.9 1051.8,139.3 1051.7,139.3 1051.7,138.8 			"/>
			<polygon class="st0" points="1061.6,0.7 1061.6,10.4 1056.3,10.4 1056.3,1 1051.8,1 1051.8,0.7 			"/>
			<polygon class="st0" points="1061.6,0.5 1061.6,0.7 1051.8,0.7 1051.8,1 1051.7,1 1051.7,0.5 			"/>
			<rect x="1051.8" y="148.8" class="st0" width="4.5" height="0.4"/>
			<rect x="1051.8" y="148.7" class="st0" width="4.5" height="0.1"/>
			<rect x="1051.8" y="139.3" class="st0" width="4.5" height="9.4"/>
			<polygon class="st0" points="1056.3,10.6 1056.3,10.9 1020.2,10.9 1020.2,10.4 1022.1,10.4 1026.6,10.4 1032,10.4 1041.8,10.4 
				1041.9,10.4 1051.7,10.4 1051.8,10.4 1051.8,10.6 			"/>
			<rect x="1051.8" y="10.4" class="st0" width="4.5" height="0.2"/>
			<rect x="1051.8" y="1" class="st0" width="4.5" height="9.4"/>
			<polygon class="st0" points="1051.8,148.8 1051.8,149.2 1051.7,149.2 1051.7,148.7 1051.8,148.7 			"/>
			<polygon class="st0" points="1051.8,139.3 1051.8,148.7 1051.7,148.7 1051.7,148.6 1051.7,139.3 			"/>
			<rect x="1051.7" y="1" class="st0" width="0.1" height="9.4"/>
			<rect x="1041.9" y="149.2" class="st1" width="9.8" height="9.3"/>
			<rect x="1041.9" y="148.7" class="st0" width="9.8" height="0.5"/>
			<rect x="1041.9" y="148.6" class="st0" width="9.8" height="0.1"/>
			<rect x="1041.9" y="139.3" class="st0" width="9.8" height="9.3"/>
			<rect x="1041.9" y="138.8" class="st0" width="9.8" height="0.5"/>
			<rect x="1041.9" y="1" class="st0" width="9.8" height="9.4"/>
			<rect x="1041.9" y="0.5" class="st0" width="9.8" height="0.5"/>
			<rect x="1041.8" y="149.2" class="st1" width="0.1" height="9.3"/>
			<rect x="1041.8" y="148.7" class="st0" width="0.1" height="0.5"/>
			<rect x="1041.8" y="148.6" class="st0" width="0.1" height="0.1"/>
			<rect x="1041.8" y="139.3" class="st0" width="0.1" height="9.3"/>
			<rect x="1041.8" y="138.8" class="st0" width="0.1" height="0.5"/>
			<rect x="1041.8" y="1" class="st0" width="0.1" height="9.4"/>
			<rect x="1041.8" y="0.5" class="st0" width="0.1" height="0.5"/>
			<rect x="1032" y="149.2" class="st1" width="9.8" height="9.3"/>
			<rect x="1032" y="148.7" class="st0" width="9.8" height="0.5"/>
			<rect x="1032" y="148.6" class="st0" width="9.8" height="0.1"/>
			<rect x="1032" y="139.3" class="st0" width="9.8" height="9.3"/>
			<rect x="1032" y="138.8" class="st0" width="9.8" height="0.5"/>
			<rect x="1032" y="1" class="st0" width="9.8" height="9.4"/>
			<rect x="1032" y="0.5" class="st0" width="9.8" height="0.5"/>
			<rect x="1022.1" y="149.2" class="st1" width="9.9" height="9.3"/>
			<polygon class="st0" points="1032,148.7 1032,149.2 1022.1,149.2 1022.1,148.7 1026.6,148.7 			"/>
			<rect x="1026.6" y="148.6" class="st0" width="5.4" height="0.1"/>
			<rect x="1026.6" y="139.3" class="st0" width="5.4" height="9.3"/>
			<rect x="1026.6" y="138.8" class="st0" width="5.4" height="0.5"/>
			<rect x="1026.6" y="1" class="st0" width="5.4" height="9.4"/>
			<rect x="1026.6" y="0.5" class="st0" width="5.4" height="0.5"/>
			<rect x="1022.1" y="148.6" class="st0" width="4.5" height="0.1"/>
			<rect x="1022.1" y="139.3" class="st0" width="4.5" height="9.3"/>
			<rect x="1022.1" y="138.8" class="st0" width="4.5" height="0.5"/>
			<rect x="1022.1" y="1" class="st0" width="4.5" height="9.4"/>
			<rect x="1022.1" y="0.5" class="st0" width="4.5" height="0.5"/>
			<rect x="1020.2" y="149.2" class="st1" width="1.9" height="9.3"/>
			<polygon class="st0" points="1022.1,148.7 1022.1,149.2 1020.2,149.2 1020.2,149.1 1020.2,148.7 			"/>
			<rect x="1020.2" y="148.6" class="st0" width="1.9" height="0.1"/>
			<rect x="1020.2" y="139.3" class="st0" width="1.9" height="9.3"/>
			<polygon class="st0" points="1022.1,138.8 1022.1,139.3 1020.2,139.3 1012.2,139.3 1012.2,138.8 			"/>
			<rect x="1020.2" y="1" class="st0" width="1.9" height="9.4"/>
			<polygon class="st0" points="1022.1,0.5 1022.1,1 1020.2,1 1012.2,1 1012.2,0.5 			"/>
			<polygon class="st1" points="1020.2,158.5 1020.2,159 984.2,159 984.2,149.2 1002.3,149.2 1002.3,158.5 1012.2,158.5 			"/>
			<rect x="1012.2" y="149.2" class="st1" width="8" height="9.3"/>
			<rect x="1012.2" y="149.1" class="st0" width="8" height="0.1"/>
			<rect x="1012.2" y="148.7" class="st0" width="8" height="0.4"/>
			<rect x="1012.2" y="148.6" class="st0" width="8" height="0.1"/>
			<rect x="1012.2" y="139.3" class="st0" width="8" height="9.3"/>
			<polygon class="st0" points="1020.2,10.4 1020.2,10.9 984.2,10.9 984.2,10.4 1002.3,10.4 1012.2,10.4 			"/>
			<rect x="1012.2" y="1" class="st0" width="8" height="9.4"/>
			<rect x="1002.3" y="149.2" class="st1" width="9.9" height="9.3"/>
			<rect x="1002.3" y="149.1" class="st0" width="9.9" height="0.1"/>
			<rect x="1002.3" y="148.7" class="st0" width="9.9" height="0.4"/>
			<rect x="1002.3" y="148.6" class="st0" width="9.9" height="0.1"/>
			<rect x="1002.3" y="139.3" class="st0" width="9.9" height="9.3"/>
			<rect x="1002.3" y="138.8" class="st0" width="9.9" height="0.5"/>
			<rect x="1002.3" y="1" class="st0" width="9.9" height="9.4"/>
			<rect x="1002.3" y="0.5" class="st0" width="9.9" height="0.5"/>
			<rect x="984.2" y="149.1" class="st0" width="18.1" height="0.1"/>
			<rect x="984.2" y="148.7" class="st0" width="18.1" height="0.4"/>
			<polygon class="st0" points="1002.3,148.6 1002.3,148.7 984.2,148.7 984.2,139.3 1002.3,139.3 			"/>
			<polygon class="st0" points="1002.3,138.8 1002.3,139.3 984.2,139.3 984.1,139.3 948.2,139.3 948.2,148.7 948.1,148.7 
				948.1,139.3 912.1,139.3 912,139.3 876.1,139.3 870.3,139.3 870.3,138.8 			"/>
			<rect x="984.2" y="1" class="st0" width="18.1" height="9.4"/>
			<polygon class="st0" points="1002.3,0.5 1002.3,1 984.2,1 984.1,1 948.2,1 948.2,10.4 948.1,10.4 948.1,1 912.1,1 912,1 876.1,1 
				870.3,1 870.3,0.5 			"/>
			<rect x="984.1" y="149.2" class="st1" width="0.1" height="9.8"/>
			<rect x="984.1" y="149.1" class="st0" width="0.1" height="0.1"/>
			<rect x="984.1" y="148.7" class="st0" width="0.1" height="0.4"/>
			<rect x="984.1" y="139.3" class="st0" width="0.1" height="9.4"/>
			<rect x="984.1" y="10.4" class="st0" width="0.1" height="0.5"/>
			<rect x="984.1" y="1" class="st0" width="0.1" height="9.4"/>
			<rect x="948.2" y="149.2" class="st1" width="35.9" height="9.8"/>
			<rect x="948.2" y="149.1" class="st0" width="35.9" height="0.1"/>
			<rect x="948.2" y="148.7" class="st0" width="35.9" height="0.4"/>
			<rect x="948.2" y="139.3" class="st0" width="35.9" height="9.4"/>
			<rect x="948.2" y="10.4" class="st0" width="35.9" height="0.5"/>
			<rect x="948.2" y="1" class="st0" width="35.9" height="9.4"/>
			<rect x="912.1" y="149.2" class="st1" width="36" height="9.8"/>
			<rect x="912.1" y="149.1" class="st0" width="36" height="0.1"/>
			<rect x="912.1" y="148.7" class="st0" width="36" height="0.4"/>
			<rect x="912.1" y="139.3" class="st0" width="36" height="9.4"/>
			<rect x="912.1" y="10.4" class="st0" width="36" height="0.5"/>
			<rect x="912.1" y="1" class="st0" width="36" height="9.4"/>
			<rect x="912" y="149.2" class="st1" width="0.1" height="9.8"/>
			<rect x="912" y="149.1" class="st0" width="0.1" height="0.1"/>
			<rect x="912" y="148.7" class="st0" width="0.1" height="0.4"/>
			<rect x="912" y="139.3" class="st0" width="0.1" height="9.4"/>
			<rect x="912" y="10.4" class="st0" width="0.1" height="0.5"/>
			<rect x="912" y="1" class="st0" width="0.1" height="9.4"/>
			<rect x="876.1" y="149.2" class="st1" width="35.9" height="9.8"/>
			<rect x="876.1" y="149.1" class="st0" width="35.9" height="0.1"/>
			<rect x="876.1" y="148.7" class="st0" width="35.9" height="0.4"/>
			<rect x="876.1" y="139.3" class="st0" width="35.9" height="9.4"/>
			<rect x="876.1" y="10.4" class="st0" width="35.9" height="0.5"/>
			<rect x="876.1" y="1" class="st0" width="35.9" height="9.4"/>
			<polygon class="st1" points="876.1,149.2 876.1,159 840,159 840,158.5 870.3,158.5 870.3,149.2 			"/>
			<rect x="870.3" y="149.1" class="st0" width="5.8" height="0.1"/>
			<rect x="870.3" y="148.7" class="st0" width="5.8" height="0.4"/>
			<polygon class="st0" points="876.1,139.3 876.1,148.7 870.3,148.7 870.3,148.6 870.3,139.3 			"/>
			<polygon class="st0" points="876.1,10.4 876.1,10.9 840,10.9 840,10.4 870.3,10.4 			"/>
			<rect x="870.3" y="1" class="st0" width="5.8" height="9.4"/>
			<rect x="840" y="149.2" class="st1" width="30.3" height="9.3"/>
			<rect x="840" y="149.1" class="st0" width="30.3" height="0.1"/>
			<rect x="840" y="148.7" class="st0" width="30.3" height="0.4"/>
			<rect x="840" y="148.6" class="st0" width="30.3" height="0.1"/>
			<rect x="840" y="139.3" class="st0" width="30.3" height="9.3"/>
			<polygon class="st0" points="870.3,138.8 870.3,139.3 840,139.3 840,148.6 714,148.6 714,138.8 			"/>
			<rect x="840" y="1" class="st0" width="30.3" height="9.4"/>
			<polygon class="st0" points="870.3,0.5 870.3,1 840,1 840,10.4 714,10.4 714,0.5 			"/>
			<polygon class="st1" points="840,149.2 840,158.5 714,158.5 714,148.7 840,148.7 840,149.1 			"/>
			<rect x="714" y="148.6" class="st0" width="126" height="0.1"/>
			<rect x="557.8" y="148.7" class="st1" width="156.2" height="9.8"/>
			<rect x="557.8" y="148.6" class="st0" width="156.2" height="0.1"/>
			<rect x="557.8" y="138.8" class="st0" width="156.2" height="9.8"/>
			<rect x="557.8" y="0.5" class="st0" width="156.2" height="9.9"/>
			<rect x="401.5" y="148.7" class="st1" width="156.3" height="9.8"/>
			<rect x="401.5" y="148.6" class="st0" width="156.3" height="0.1"/>
			<rect x="401.5" y="138.8" class="st0" width="156.3" height="9.8"/>
			<rect x="401.5" y="0.5" class="st0" width="156.3" height="9.9"/>
			<rect x="245.3" y="148.7" class="st1" width="156.2" height="9.8"/>
			<rect x="245.3" y="148.6" class="st0" width="156.2" height="0.1"/>
			<rect x="245.3" y="138.8" class="st0" width="156.2" height="9.8"/>
			<rect x="245.3" y="0.5" class="st0" width="156.2" height="9.9"/>
			<polygon class="st1" points="245.3,148.7 245.3,158.5 89.1,158.5 89.1,148.8 89,148.8 89,148.7 			"/>
			<rect x="89" y="148.6" class="st0" width="156.3" height="0.1"/>
			<rect x="89" y="138.8" class="st0" width="156.3" height="9.8"/>
			<polygon class="st0" points="245.3,0.5 245.3,10.4 89.1,10.4 89.1,0.7 89,0.7 89,0.5 			"/>
			<polygon class="st0" points="89.1,158.5 89.1,158.7 79.2,158.7 79.2,148.8 89,148.8 89,158.5 			"/>
			<rect x="89" y="148.8" class="st1" width="0.1" height="9.7"/>
			<polygon class="st0" points="89.1,10.4 89.1,10.6 79.2,10.6 79.2,0.7 89,0.7 89,10.4 			"/>
			<rect x="89" y="0.7" class="st0" width="0.1" height="9.7"/>
			<rect x="69.3" y="158.7" class="st0" width="9.9" height="9.9"/>
			<rect x="69.3" y="0.7" class="st0" width="9.9" height="9.9"/>
			<polygon class="st0" points="69.3,168.6 69.3,178.5 59.4,178.5 59.4,178.4 59.4,168.6 			"/>
			<rect x="59.4" y="0.7" class="st0" width="9.9" height="9.9"/>
			<rect x="49.6" y="178.5" class="st0" width="9.8" height="9.8"/>
			<rect x="49.6" y="178.4" class="st0" width="9.8" height="0.1"/>
			<rect x="49.6" y="168.6" class="st0" width="9.8" height="9.8"/>
			<rect x="49.6" y="158.7" class="st0" width="9.8" height="9.9"/>
			<rect x="49.6" y="148.8" class="st0" width="9.8" height="9.9"/>
			<polygon class="st0" points="59.4,138.9 59.4,148.8 49.6,148.8 49.6,139 49.6,138.9 			"/>
			<polygon class="st0" points="59.4,0.7 59.4,10.6 49.6,10.6 49.5,10.6 49.5,0.7 			"/>
			<rect x="49.5" y="178.5" class="st0" width="0.1" height="9.8"/>
			<rect x="49.5" y="178.4" class="st0" width="0.1" height="0.1"/>
			<rect x="49.5" y="168.6" class="st0" width="0.1" height="9.8"/>
			<rect x="49.5" y="158.7" class="st0" width="0.1" height="9.9"/>
			<rect x="49.5" y="148.8" class="st0" width="0.1" height="9.9"/>
			<rect x="49.5" y="139" class="st0" width="0.1" height="9.8"/>
			<rect x="49.5" y="138.9" class="st0" width="0.1" height="0.1"/>
			<polygon class="st0" points="49.6,129.1 49.6,138.9 49.5,138.9 39.7,138.9 39.7,129.1 			"/>
			<polygon class="st0" points="49.6,10.6 49.6,20.5 39.7,20.5 39.7,20.4 39.7,10.6 49.5,10.6 			"/>
			<rect x="39.7" y="178.5" class="st1" width="9.8" height="9.8"/>
			<rect x="39.7" y="178.4" class="st1" width="9.8" height="0.1"/>
			<rect x="39.7" y="168.6" class="st1" width="9.8" height="9.8"/>
			<rect x="39.7" y="158.7" class="st1" width="9.8" height="9.9"/>
			<rect x="39.7" y="148.8" class="st1" width="9.8" height="9.9"/>
			<rect x="39.7" y="139" class="st1" width="9.8" height="9.8"/>
			<rect x="39.7" y="138.9" class="st0" width="9.8" height="0.1"/>
			<polygon class="st1" points="39.7,138.9 39.7,139 29.8,139 29.8,129.1 39.7,129.1 			"/>
			<rect x="29.8" y="119.2" class="st0" width="9.9" height="9.9"/>
			<rect x="29.8" y="20.5" class="st0" width="9.9" height="9.8"/>
			<rect x="29.8" y="20.4" class="st1" width="9.9" height="0.1"/>
			<rect x="29.8" y="10.6" class="st1" width="9.9" height="9.8"/>
			<rect x="19.9" y="119.2" class="st1" width="9.9" height="9.9"/>
			<rect x="19.9" y="109.3" class="st0" width="9.9" height="9.9"/>
			<rect x="19.9" y="30.3" class="st0" width="9.9" height="9.9"/>
			<polygon class="st1" points="29.8,20.5 29.8,30.3 19.9,30.3 19.9,20.4 29.8,20.4 			"/>
			<polygon class="st1" points="19.9,109.3 19.9,119.2 10,119.2 10,109.3 10.1,109.3 			"/>
			<rect x="10.1" y="99.5" class="st0" width="9.8" height="9.8"/>
			<rect x="10.1" y="99.4" class="st0" width="9.8" height="0.1"/>
			<rect x="10.1" y="89.6" class="st0" width="9.8" height="9.8"/>
			<rect x="10.1" y="79.7" class="st0" width="9.8" height="9.9"/>
			<rect x="10.1" y="69.8" class="st0" width="9.8" height="9.9"/>
			<rect x="10.1" y="60" class="st0" width="9.8" height="9.8"/>
			<rect x="10.1" y="59.9" class="st0" width="9.8" height="0.1"/>
			<rect x="10.1" y="50.1" class="st0" width="9.8" height="9.8"/>
			<polygon class="st0" points="19.9,40.2 19.9,50.1 10.1,50.1 10,50.1 10,40.2 			"/>
			<rect x="10" y="30.3" class="st1" width="9.9" height="9.9"/>
			<rect x="10" y="99.5" class="st0" width="0.1" height="9.8"/>
			<rect x="10" y="99.4" class="st0" width="0.1" height="0.1"/>
			<rect x="10" y="89.6" class="st0" width="0.1" height="9.8"/>
			<rect x="10" y="79.7" class="st0" width="0.1" height="9.9"/>
			<rect x="10" y="69.8" class="st0" width="0.1" height="9.9"/>
			<rect x="10" y="60" class="st0" width="0.1" height="9.8"/>
			<rect x="10" y="59.9" class="st0" width="0.1" height="0.1"/>
			<rect x="10" y="50.1" class="st0" width="0.1" height="9.8"/>
			<rect x="0.2" y="99.5" class="st1" width="9.8" height="9.8"/>
			<rect x="0.2" y="99.4" class="st1" width="9.8" height="0.1"/>
			<rect x="0.2" y="89.6" class="st1" width="9.8" height="9.8"/>
			<rect x="0.2" y="79.7" class="st1" width="9.8" height="9.9"/>
			<rect x="0.2" y="69.8" class="st1" width="9.8" height="9.9"/>
			<rect x="0.2" y="60" class="st1" width="9.8" height="9.8"/>
			<rect x="0.2" y="59.9" class="st1" width="9.8" height="0.1"/>
			<rect x="0.2" y="50.1" class="st1" width="9.8" height="9.8"/>
		</g>
		<g>
		</g>
	</g>
</g>
</svg>
