<?xml version="1.0" encoding="utf-8"?>
<!-- Generator: Adobe Illustrator 24.0.1, SVG Export Plug-In . SVG Version: 6.00 Build 0)  -->
<svg version="1.1" id="Calque_1" shape-rendering="crispEdges"
	 xmlns="http://www.w3.org/2000/svg" xmlns:xlink="http://www.w3.org/1999/xlink" x="0px" y="0px" viewBox="0 0 23 18"
	 style="enable-background:new 0 0 23 18;" xml:space="preserve" preserveAspectRatio="none">
<style type="text/css">
	.st0{fill:#302236;}
	.st1{fill:#645C78;}
	.st2{fill:#514264;}
	.st3{fill:#7CBA90;}
	.st4{fill:#699D8A;}
	.st5{fill:#7E7B97;}
	.st6{opacity:1.176500e-02;fill:#301234;enable-background:new    ;}
	.st7{fill:#FCC7A2;}
	.st8{fill:#D2606C;}
	.st9{fill:#8F3521;}
</style>
<rect x="6" class="st0" width="1" height="1"/>
<rect x="7" class="st0" width="1" height="1"/>
<rect x="8" class="st0" width="1" height="1"/>
<rect x="9" class="st0" width="1" height="1"/>
<rect x="4" y="1" class="st0" width="1" height="1"/>
<rect x="5" y="1" class="st0" width="1" height="1"/>
<rect x="6" y="1" class="st1" width="1" height="1"/>
<rect x="7" y="1" class="st1" width="1" height="1"/>
<rect x="8" y="1" class="st2" width="1" height="1"/>
<rect x="9" y="1" class="st2" width="1" height="1"/>
<rect x="2" y="2" class="st0" width="1" height="1"/>
<rect x="3" y="2" class="st0" width="1" height="1"/>
<rect x="4" y="2" class="st0" width="1" height="1"/>
<rect x="5" y="2" class="st0" width="1" height="1"/>
<rect x="6" y="2" class="st2" width="1" height="1"/>
<rect x="7" y="2" class="st1" width="1" height="1"/>
<rect x="8" y="2" class="st1" width="1" height="1"/>
<rect x="9" y="2" class="st1" width="1" height="1"/>
<rect x="10" y="2" class="st2" width="1" height="1"/>
<rect x="11" y="2" class="st2" width="1" height="1"/>
<rect x="12" y="2" class="st2" width="1" height="1"/>
<rect x="17" y="2" class="st2" width="1" height="1"/>
<rect x="18" y="2" class="st2" width="1" height="1"/>
<rect x="19" y="2" class="st0" width="1" height="1"/>
<rect x="2" y="3" class="st0" width="1" height="1"/>
<rect x="3" y="3" class="st3" width="1" height="1"/>
<rect x="4" y="3" class="st3" width="1" height="1"/>
<rect x="5" y="3" class="st3" width="1" height="1"/>
<rect x="6" y="3" class="st0" width="1" height="1"/>
<rect x="7" y="3" class="st2" width="1" height="1"/>
<rect x="8" y="3" class="st1" width="1" height="1"/>
<rect x="9" y="3" class="st1" width="1" height="1"/>
<rect x="10" y="3" class="st1" width="1" height="1"/>
<rect x="11" y="3" class="st1" width="1" height="1"/>
<rect x="12" y="3" class="st1" width="1" height="1"/>
<rect x="13" y="3" class="st2" width="1" height="1"/>
<rect x="14" y="3" class="st2" width="1" height="1"/>
<rect x="15" y="3" class="st0" width="1" height="1"/>
<rect x="16" y="3" class="st2" width="1" height="1"/>
<rect x="17" y="3" class="st2" width="1" height="1"/>
<rect x="18" y="3" class="st1" width="1" height="1"/>
<rect x="19" y="3" class="st0" width="1" height="1"/>
<rect x="2" y="4" class="st0" width="1" height="1"/>
<rect x="3" y="4" class="st4" width="1" height="1"/>
<rect x="4" y="4" class="st3" width="1" height="1"/>
<rect x="5" y="4" class="st3" width="1" height="1"/>
<rect x="6" y="4" class="st3" width="1" height="1"/>
<rect x="7" y="4" class="st4" width="1" height="1"/>
<rect x="8" y="4" class="st2" width="1" height="1"/>
<rect x="9" y="4" class="st1" width="1" height="1"/>
<rect x="10" y="4" class="st5" width="1" height="1"/>
<rect x="11" y="4" class="st1" width="1" height="1"/>
<rect x="12" y="4" class="st5" width="1" height="1"/>
<rect x="13" y="4" class="st1" width="1" height="1"/>
<rect x="14" y="4" class="st2" width="1" height="1"/>
<rect x="15" y="4" class="st0" width="1" height="1"/>
<rect x="16" y="4" class="st2" width="1" height="1"/>
<rect x="17" y="4" class="st1" width="1" height="1"/>
<rect x="18" y="4" class="st5" width="1" height="1"/>
<rect x="19" y="4" class="st0" width="1" height="1"/>
<rect x="20" y="4" class="st6" width="1" height="1"/>
<rect x="1" y="5" class="st0" width="1" height="1"/>
<rect x="2" y="5" class="st3" width="1" height="1"/>
<rect x="3" y="5" class="st3" width="1" height="1"/>
<rect x="4" y="5" class="st3" width="1" height="1"/>
<rect x="5" y="5" class="st4" width="1" height="1"/>
<rect x="6" y="5" class="st4" width="1" height="1"/>
<rect x="7" y="5" class="st2" width="1" height="1"/>
<rect x="8" y="5" class="st2" width="1" height="1"/>
<rect x="9" y="5" class="st1" width="1" height="1"/>
<rect x="10" y="5" class="st1" width="1" height="1"/>
<rect x="11" y="5" class="st5" width="1" height="1"/>
<rect x="12" y="5" class="st1" width="1" height="1"/>
<rect x="13" y="5" class="st5" width="1" height="1"/>
<rect x="14" y="5" class="st5" width="1" height="1"/>
<rect x="15" y="5" class="st2" width="1" height="1"/>
<rect x="16" y="5" class="st5" width="1" height="1"/>
<rect x="17" y="5" class="st5" width="1" height="1"/>
<rect x="18" y="5" class="st1" width="1" height="1"/>
<rect x="19" y="5" class="st0" width="1" height="1"/>
<rect x="20" y="5" class="st0" width="1" height="1"/>
<rect x="1" y="6" class="st0" width="1" height="1"/>
<rect x="2" y="6" class="st3" width="1" height="1"/>
<rect x="3" y="6" class="st3" width="1" height="1"/>
<rect x="4" y="6" class="st3" width="1" height="1"/>
<rect x="5" y="6" class="st3" width="1" height="1"/>
<rect x="6" y="6" class="st0" width="1" height="1"/>
<rect x="7" y="6" class="st0" width="1" height="1"/>
<rect x="8" y="6" class="st2" width="1" height="1"/>
<rect x="9" y="6" class="st1" width="1" height="1"/>
<rect x="10" y="6" class="st1" width="1" height="1"/>
<rect x="11" y="6" class="st1" width="1" height="1"/>
<rect x="12" y="6" class="st5" width="1" height="1"/>
<rect x="13" y="6" class="st5" width="1" height="1"/>
<rect x="14" y="6" class="st5" width="1" height="1"/>
<rect x="15" y="6" class="st2" width="1" height="1"/>
<rect x="16" y="6" class="st5" width="1" height="1"/>
<rect x="17" y="6" class="st5" width="1" height="1"/>
<rect x="18" y="6" class="st5" width="1" height="1"/>
<rect x="19" y="6" class="st0" width="1" height="1"/>
<rect x="20" y="6" class="st0" width="1" height="1"/>
<rect x="21" y="6" class="st6" width="1" height="1"/>
<rect y="7" class="st0" width="1" height="1"/>
<rect x="1" y="7" class="st4" width="1" height="1"/>
<rect x="2" y="7" class="st4" width="1" height="1"/>
<rect x="3" y="7" class="st3" width="1" height="1"/>
<rect x="4" y="7" class="st4" width="1" height="1"/>
<rect x="5" y="7" class="st0" width="1" height="1"/>
<rect x="6" y="7" class="st0" width="1" height="1"/>
<rect x="7" y="7" class="st0" width="1" height="1"/>
<rect x="8" y="7" class="st0" width="1" height="1"/>
<rect x="9" y="7" class="st0" width="1" height="1"/>
<rect x="10" y="7" class="st0" width="1" height="1"/>
<rect x="11" y="7" class="st0" width="1" height="1"/>
<rect x="12" y="7" class="st5" width="1" height="1"/>
<rect x="13" y="7" class="st5" width="1" height="1"/>
<rect x="14" y="7" class="st5" width="1" height="1"/>
<rect x="15" y="7" class="st2" width="1" height="1"/>
<rect x="16" y="7" class="st5" width="1" height="1"/>
<rect x="17" y="7" class="st5" width="1" height="1"/>
<rect x="18" y="7" class="st0" width="1" height="1"/>
<rect x="19" y="7" class="st0" width="1" height="1"/>
<rect x="20" y="7" class="st0" width="1" height="1"/>
<rect x="21" y="7" class="st0" width="1" height="1"/>
<rect x="22" y="7" class="st6" width="1" height="1"/>
<rect y="8" class="st0" width="1" height="1"/>
<rect x="1" y="8" class="st3" width="1" height="1"/>
<rect x="2" y="8" class="st3" width="1" height="1"/>
<rect x="3" y="8" class="st3" width="1" height="1"/>
<rect x="4" y="8" class="st3" width="1" height="1"/>
<rect x="5" y="8" class="st1" width="1" height="1"/>
<rect x="6" y="8" class="st3" width="1" height="1"/>
<rect x="7" y="8" class="st1" width="1" height="1"/>
<rect x="8" y="8" class="st7" width="1" height="1"/>
<rect x="9" y="8" class="st7" width="1" height="1"/>
<rect x="10" y="8" class="st8" width="1" height="1"/>
<rect x="11" y="8" class="st0" width="1" height="1"/>
<rect x="12" y="8" class="st5" width="1" height="1"/>
<rect x="13" y="8" class="st5" width="1" height="1"/>
<rect x="14" y="8" class="st5" width="1" height="1"/>
<rect x="15" y="8" class="st2" width="1" height="1"/>
<rect x="16" y="8" class="st5" width="1" height="1"/>
<rect x="17" y="8" class="st5" width="1" height="1"/>
<rect x="18" y="8" class="st0" width="1" height="1"/>
<rect x="19" y="8" class="st7" width="1" height="1"/>
<rect x="20" y="8" class="st8" width="1" height="1"/>
<rect x="21" y="8" class="st2" width="1" height="1"/>
<rect x="22" y="8" class="st0" width="1" height="1"/>
<rect y="9" class="st0" width="1" height="1"/>
<rect x="1" y="9" class="st4" width="1" height="1"/>
<rect x="2" y="9" class="st3" width="1" height="1"/>
<rect x="3" y="9" class="st3" width="1" height="1"/>
<rect x="4" y="9" class="st3" width="1" height="1"/>
<rect x="5" y="9" class="st2" width="1" height="1"/>
<rect x="6" y="9" class="st3" width="1" height="1"/>
<rect x="7" y="9" class="st2" width="1" height="1"/>
<rect x="8" y="9" class="st7" width="1" height="1"/>
<rect x="9" y="9" class="st7" width="1" height="1"/>
<rect x="10" y="9" class="st9" width="1" height="1"/>
<rect x="11" y="9" class="st0" width="1" height="1"/>
<rect x="12" y="9" class="st5" width="1" height="1"/>
<rect x="13" y="9" class="st5" width="1" height="1"/>
<rect x="14" y="9" class="st5" width="1" height="1"/>
<rect x="15" y="9" class="st2" width="1" height="1"/>
<rect x="16" y="9" class="st5" width="1" height="1"/>
<rect x="17" y="9" class="st5" width="1" height="1"/>
<rect x="18" y="9" class="st0" width="1" height="1"/>
<rect x="19" y="9" class="st9" width="1" height="1"/>
<rect x="20" y="9" class="st8" width="1" height="1"/>
<rect x="21" y="9" class="st2" width="1" height="1"/>
<rect x="22" y="9" class="st0" width="1" height="1"/>
<rect y="10" class="st0" width="1" height="1"/>
<rect x="1" y="10" class="st4" width="1" height="1"/>
<rect x="2" y="10" class="st4" width="1" height="1"/>
<rect x="3" y="10" class="st3" width="1" height="1"/>
<rect x="4" y="10" class="st4" width="1" height="1"/>
<rect x="5" y="10" class="st2" width="1" height="1"/>
<rect x="6" y="10" class="st4" width="1" height="1"/>
<rect x="7" y="10" class="st2" width="1" height="1"/>
<rect x="8" y="10" class="st7" width="1" height="1"/>
<rect x="9" y="10" class="st7" width="1" height="1"/>
<rect x="10" y="10" class="st8" width="1" height="1"/>
<rect x="11" y="10" class="st0" width="1" height="1"/>
<rect x="12" y="10" class="st5" width="1" height="1"/>
<rect x="13" y="10" class="st5" width="1" height="1"/>
<rect x="14" y="10" class="st5" width="1" height="1"/>
<rect x="15" y="10" class="st2" width="1" height="1"/>
<rect x="16" y="10" class="st5" width="1" height="1"/>
<rect x="17" y="10" class="st5" width="1" height="1"/>
<rect x="18" y="10" class="st0" width="1" height="1"/>
<rect x="19" y="10" class="st7" width="1" height="1"/>
<rect x="20" y="10" class="st8" width="1" height="1"/>
<rect x="21" y="10" class="st0" width="1" height="1"/>
<rect x="22" y="10" class="st0" width="1" height="1"/>
<rect y="11" class="st0" width="1" height="1"/>
<rect x="1" y="11" class="st0" width="1" height="1"/>
<rect x="2" y="11" class="st0" width="1" height="1"/>
<rect x="3" y="11" class="st0" width="1" height="1"/>
<rect x="4" y="11" class="st0" width="1" height="1"/>
<rect x="5" y="11" class="st0" width="1" height="1"/>
<rect x="6" y="11" class="st0" width="1" height="1"/>
<rect x="7" y="11" class="st0" width="1" height="1"/>
<rect x="8" y="11" class="st0" width="1" height="1"/>
<rect x="9" y="11" class="st0" width="1" height="1"/>
<rect x="10" y="11" class="st0" width="1" height="1"/>
<rect x="11" y="11" class="st1" width="1" height="1"/>
<rect x="12" y="11" class="st5" width="1" height="1"/>
<rect x="13" y="11" class="st5" width="1" height="1"/>
<rect x="14" y="11" class="st5" width="1" height="1"/>
<rect x="15" y="11" class="st2" width="1" height="1"/>
<rect x="16" y="11" class="st5" width="1" height="1"/>
<rect x="17" y="11" class="st5" width="1" height="1"/>
<rect x="18" y="11" class="st0" width="1" height="1"/>
<rect x="19" y="11" class="st0" width="1" height="1"/>
<rect x="20" y="11" class="st0" width="1" height="1"/>
<rect x="21" y="11" class="st0" width="1" height="1"/>
<rect x="4" y="12" class="st0" width="1" height="1"/>
<rect x="5" y="12" class="st0" width="1" height="1"/>
<rect x="6" y="12" class="st0" width="1" height="1"/>
<rect x="7" y="12" class="st2" width="1" height="1"/>
<rect x="8" y="12" class="st1" width="1" height="1"/>
<rect x="9" y="12" class="st5" width="1" height="1"/>
<rect x="10" y="12" class="st5" width="1" height="1"/>
<rect x="11" y="12" class="st5" width="1" height="1"/>
<rect x="12" y="12" class="st5" width="1" height="1"/>
<rect x="13" y="12" class="st5" width="1" height="1"/>
<rect x="14" y="12" class="st5" width="1" height="1"/>
<rect x="15" y="12" class="st0" width="1" height="1"/>
<rect x="16" y="12" class="st5" width="1" height="1"/>
<rect x="17" y="12" class="st5" width="1" height="1"/>
<rect x="18" y="12" class="st5" width="1" height="1"/>
<rect x="19" y="12" class="st0" width="1" height="1"/>
<rect x="4" y="13" class="st0" width="1" height="1"/>
<rect x="5" y="13" class="st2" width="1" height="1"/>
<rect x="6" y="13" class="st2" width="1" height="1"/>
<rect x="7" y="13" class="st1" width="1" height="1"/>
<rect x="8" y="13" class="st1" width="1" height="1"/>
<rect x="9" y="13" class="st1" width="1" height="1"/>
<rect x="10" y="13" class="st5" width="1" height="1"/>
<rect x="11" y="13" class="st5" width="1" height="1"/>
<rect x="12" y="13" class="st5" width="1" height="1"/>
<rect x="13" y="13" class="st5" width="1" height="1"/>
<rect x="14" y="13" class="st1" width="1" height="1"/>
<rect x="15" y="13" class="st2" width="1" height="1"/>
<rect x="16" y="13" class="st1" width="1" height="1"/>
<rect x="17" y="13" class="st5" width="1" height="1"/>
<rect x="18" y="13" class="st5" width="1" height="1"/>
<rect x="19" y="13" class="st0" width="1" height="1"/>
<rect x="4" y="14" class="st0" width="1" height="1"/>
<rect x="5" y="14" class="st2" width="1" height="1"/>
<rect x="6" y="14" class="st2" width="1" height="1"/>
<rect x="7" y="14" class="st2" width="1" height="1"/>
<rect x="8" y="14" class="st2" width="1" height="1"/>
<rect x="9" y="14" class="st2" width="1" height="1"/>
<rect x="10" y="14" class="st2" width="1" height="1"/>
<rect x="11" y="14" class="st2" width="1" height="1"/>
<rect x="12" y="14" class="st2" width="1" height="1"/>
<rect x="13" y="14" class="st2" width="1" height="1"/>
<rect x="14" y="14" class="st2" width="1" height="1"/>
<rect x="15" y="14" class="st0" width="1" height="1"/>
<rect x="16" y="14" class="st2" width="1" height="1"/>
<rect x="17" y="14" class="st2" width="1" height="1"/>
<rect x="18" y="14" class="st2" width="1" height="1"/>
<rect x="19" y="14" class="st0" width="1" height="1"/>
<rect x="4" y="15" class="st0" width="1" height="1"/>
<rect x="5" y="15" class="st4" width="1" height="1"/>
<rect x="6" y="15" class="st4" width="1" height="1"/>
<rect x="7" y="15" class="st3" width="1" height="1"/>
<rect x="8" y="15" class="st4" width="1" height="1"/>
<rect x="9" y="15" class="st4" width="1" height="1"/>
<rect x="10" y="15" class="st3" width="1" height="1"/>
<rect x="11" y="15" class="st3" width="1" height="1"/>
<rect x="12" y="15" class="st3" width="1" height="1"/>
<rect x="13" y="15" class="st3" width="1" height="1"/>
<rect x="14" y="15" class="st2" width="1" height="1"/>
<rect x="15" y="15" class="st0" width="1" height="1"/>
<rect x="16" y="15" class="st2" width="1" height="1"/>
<rect x="17" y="15" class="st3" width="1" height="1"/>
<rect x="18" y="15" class="st3" width="1" height="1"/>
<rect x="19" y="15" class="st0" width="1" height="1"/>
<rect x="4" y="16" class="st0" width="1" height="1"/>
<rect x="5" y="16" class="st2" width="1" height="1"/>
<rect x="6" y="16" class="st2" width="1" height="1"/>
<rect x="7" y="16" class="st2" width="1" height="1"/>
<rect x="8" y="16" class="st2" width="1" height="1"/>
<rect x="9" y="16" class="st2" width="1" height="1"/>
<rect x="10" y="16" class="st2" width="1" height="1"/>
<rect x="11" y="16" class="st2" width="1" height="1"/>
<rect x="12" y="16" class="st2" width="1" height="1"/>
<rect x="13" y="16" class="st2" width="1" height="1"/>
<rect x="14" y="16" class="st2" width="1" height="1"/>
<rect x="15" y="16" class="st0" width="1" height="1"/>
<rect x="16" y="16" class="st2" width="1" height="1"/>
<rect x="17" y="16" class="st2" width="1" height="1"/>
<rect x="18" y="16" class="st2" width="1" height="1"/>
<rect x="19" y="16" class="st0" width="1" height="1"/>
<rect x="4" y="17" class="st0" width="1" height="1"/>
<rect x="5" y="17" class="st0" width="1" height="1"/>
<rect x="6" y="17" class="st0" width="1" height="1"/>
<rect x="7" y="17" class="st0" width="1" height="1"/>
<rect x="8" y="17" class="st0" width="1" height="1"/>
<rect x="9" y="17" class="st0" width="1" height="1"/>
<rect x="10" y="17" class="st0" width="1" height="1"/>
<rect x="11" y="17" class="st0" width="1" height="1"/>
<rect x="12" y="17" class="st0" width="1" height="1"/>
<rect x="13" y="17" class="st0" width="1" height="1"/>
<rect x="14" y="17" class="st0" width="1" height="1"/>
<rect x="15" y="17" class="st0" width="1" height="1"/>
<rect x="16" y="17" class="st0" width="1" height="1"/>
<rect x="17" y="17" class="st0" width="1" height="1"/>
<rect x="18" y="17" class="st0" width="1" height="1"/>
<rect x="19" y="17" class="st0" width="1" height="1"/>
</svg>
