<?xml version="1.0" encoding="utf-8"?>
<!-- Generator: Adobe Illustrator 24.0.1, SVG Export Plug-In . SVG Version: 6.00 Build 0)  -->
<svg version="1.1" id="Calque_1" shape-rendering="crispEdges"
	 xmlns="http://www.w3.org/2000/svg" xmlns:xlink="http://www.w3.org/1999/xlink" x="0px" y="0px" viewBox="0 0 16 42"
	 style="enable-background:new 0 0 16 42;" xml:space="preserve" preserveAspectRatio="none">
<style type="text/css">
	.st0{fill:#302236;}
	.st1{fill:#FCC7A2;}
	.st2{fill:#1F2430;}
	.st3{fill:#31394A;}
	.st4{fill:#D2606C;}
	.st5{fill:#A11942;}
	.st6{opacity:1.176500e-02;fill:#301234;enable-background:new    ;}
</style>
<rect x="6" class="st0" width="1" height="1"/>
<rect x="7" class="st0" width="1" height="1"/>
<rect x="8" class="st0" width="1" height="1"/>
<rect x="9" class="st0" width="1" height="1"/>
<rect x="10" class="st0" width="1" height="1"/>
<rect x="11" class="st0" width="1" height="1"/>
<rect x="12" class="st0" width="1" height="1"/>
<rect x="5" y="1" class="st0" width="1" height="1"/>
<rect x="6" y="1" class="st1" width="1" height="1"/>
<rect x="7" y="1" class="st1" width="1" height="1"/>
<rect x="8" y="1" class="st1" width="1" height="1"/>
<rect x="9" y="1" class="st1" width="1" height="1"/>
<rect x="10" y="1" class="st1" width="1" height="1"/>
<rect x="11" y="1" class="st1" width="1" height="1"/>
<rect x="12" y="1" class="st1" width="1" height="1"/>
<rect x="13" y="1" class="st0" width="1" height="1"/>
<rect x="4" y="2" class="st0" width="1" height="1"/>
<rect x="5" y="2" class="st1" width="1" height="1"/>
<rect x="6" y="2" class="st1" width="1" height="1"/>
<rect x="7" y="2" class="st1" width="1" height="1"/>
<rect x="8" y="2" class="st1" width="1" height="1"/>
<rect x="9" y="2" class="st1" width="1" height="1"/>
<rect x="10" y="2" class="st1" width="1" height="1"/>
<rect x="11" y="2" class="st1" width="1" height="1"/>
<rect x="12" y="2" class="st1" width="1" height="1"/>
<rect x="13" y="2" class="st1" width="1" height="1"/>
<rect x="14" y="2" class="st0" width="1" height="1"/>
<rect x="3" y="3" class="st0" width="1" height="1"/>
<rect x="4" y="3" class="st1" width="1" height="1"/>
<rect x="5" y="3" class="st1" width="1" height="1"/>
<rect x="6" y="3" class="st1" width="1" height="1"/>
<rect x="7" y="3" class="st1" width="1" height="1"/>
<rect x="8" y="3" class="st1" width="1" height="1"/>
<rect x="9" y="3" class="st1" width="1" height="1"/>
<rect x="10" y="3" class="st1" width="1" height="1"/>
<rect x="11" y="3" class="st1" width="1" height="1"/>
<rect x="12" y="3" class="st1" width="1" height="1"/>
<rect x="13" y="3" class="st1" width="1" height="1"/>
<rect x="14" y="3" class="st1" width="1" height="1"/>
<rect x="15" y="3" class="st0" width="1" height="1"/>
<rect x="3" y="4" class="st0" width="1" height="1"/>
<rect x="4" y="4" class="st1" width="1" height="1"/>
<rect x="5" y="4" class="st1" width="1" height="1"/>
<rect x="6" y="4" class="st1" width="1" height="1"/>
<rect x="7" y="4" class="st1" width="1" height="1"/>
<rect x="8" y="4" class="st1" width="1" height="1"/>
<rect x="9" y="4" class="st1" width="1" height="1"/>
<rect x="10" y="4" class="st1" width="1" height="1"/>
<rect x="11" y="4" class="st1" width="1" height="1"/>
<rect x="12" y="4" class="st1" width="1" height="1"/>
<rect x="13" y="4" class="st1" width="1" height="1"/>
<rect x="14" y="4" class="st1" width="1" height="1"/>
<rect x="15" y="4" class="st0" width="1" height="1"/>
<rect x="3" y="5" class="st0" width="1" height="1"/>
<rect x="4" y="5" class="st1" width="1" height="1"/>
<rect x="5" y="5" class="st1" width="1" height="1"/>
<rect x="6" y="5" class="st1" width="1" height="1"/>
<rect x="7" y="5" class="st1" width="1" height="1"/>
<rect x="8" y="5" class="st1" width="1" height="1"/>
<rect x="9" y="5" class="st1" width="1" height="1"/>
<rect x="10" y="5" class="st1" width="1" height="1"/>
<rect x="11" y="5" class="st1" width="1" height="1"/>
<rect x="12" y="5" class="st1" width="1" height="1"/>
<rect x="13" y="5" class="st1" width="1" height="1"/>
<rect x="14" y="5" class="st1" width="1" height="1"/>
<rect x="15" y="5" class="st0" width="1" height="1"/>
<rect x="3" y="6" class="st0" width="1" height="1"/>
<rect x="4" y="6" class="st1" width="1" height="1"/>
<rect x="5" y="6" class="st1" width="1" height="1"/>
<rect x="6" y="6" class="st1" width="1" height="1"/>
<rect x="7" y="6" class="st1" width="1" height="1"/>
<rect x="8" y="6" class="st2" width="1" height="1"/>
<rect x="9" y="6" class="st2" width="1" height="1"/>
<rect x="10" y="6" class="st2" width="1" height="1"/>
<rect x="11" y="6" class="st1" width="1" height="1"/>
<rect x="12" y="6" class="st1" width="1" height="1"/>
<rect x="13" y="6" class="st1" width="1" height="1"/>
<rect x="14" y="6" class="st2" width="1" height="1"/>
<rect x="15" y="6" class="st2" width="1" height="1"/>
<rect x="3" y="7" class="st0" width="1" height="1"/>
<rect x="4" y="7" class="st1" width="1" height="1"/>
<rect x="5" y="7" class="st1" width="1" height="1"/>
<rect x="6" y="7" class="st1" width="1" height="1"/>
<rect x="7" y="7" class="st1" width="1" height="1"/>
<rect x="8" y="7" class="st1" width="1" height="1"/>
<rect x="9" y="7" class="st3" width="1" height="1"/>
<rect x="10" y="7" class="st3" width="1" height="1"/>
<rect x="11" y="7" class="st1" width="1" height="1"/>
<rect x="12" y="7" class="st1" width="1" height="1"/>
<rect x="13" y="7" class="st1" width="1" height="1"/>
<rect x="14" y="7" class="st3" width="1" height="1"/>
<rect x="15" y="7" class="st0" width="1" height="1"/>
<rect x="3" y="8" class="st0" width="1" height="1"/>
<rect x="4" y="8" class="st1" width="1" height="1"/>
<rect x="5" y="8" class="st1" width="1" height="1"/>
<rect x="6" y="8" class="st1" width="1" height="1"/>
<rect x="7" y="8" class="st1" width="1" height="1"/>
<rect x="8" y="8" class="st1" width="1" height="1"/>
<rect x="9" y="8" class="st3" width="1" height="1"/>
<rect x="10" y="8" class="st3" width="1" height="1"/>
<rect x="11" y="8" class="st1" width="1" height="1"/>
<rect x="12" y="8" class="st1" width="1" height="1"/>
<rect x="13" y="8" class="st1" width="1" height="1"/>
<rect x="14" y="8" class="st3" width="1" height="1"/>
<rect x="15" y="8" class="st0" width="1" height="1"/>
<rect x="4" y="9" class="st0" width="1" height="1"/>
<rect x="5" y="9" class="st1" width="1" height="1"/>
<rect x="6" y="9" class="st3" width="1" height="1"/>
<rect x="7" y="9" class="st3" width="1" height="1"/>
<rect x="8" y="9" class="st1" width="1" height="1"/>
<rect x="9" y="9" class="st3" width="1" height="1"/>
<rect x="10" y="9" class="st3" width="1" height="1"/>
<rect x="11" y="9" class="st1" width="1" height="1"/>
<rect x="12" y="9" class="st1" width="1" height="1"/>
<rect x="13" y="9" class="st1" width="1" height="1"/>
<rect x="14" y="9" class="st3" width="1" height="1"/>
<rect x="15" y="9" class="st3" width="1" height="1"/>
<rect x="5" y="10" class="st0" width="1" height="1"/>
<rect x="6" y="10" class="st4" width="1" height="1"/>
<rect x="7" y="10" class="st1" width="1" height="1"/>
<rect x="8" y="10" class="st1" width="1" height="1"/>
<rect x="9" y="10" class="st1" width="1" height="1"/>
<rect x="10" y="10" class="st1" width="1" height="1"/>
<rect x="11" y="10" class="st1" width="1" height="1"/>
<rect x="12" y="10" class="st1" width="1" height="1"/>
<rect x="13" y="10" class="st4" width="1" height="1"/>
<rect x="14" y="10" class="st1" width="1" height="1"/>
<rect x="15" y="10" class="st0" width="1" height="1"/>
<rect x="6" y="11" class="st0" width="1" height="1"/>
<rect x="7" y="11" class="st4" width="1" height="1"/>
<rect x="8" y="11" class="st1" width="1" height="1"/>
<rect x="9" y="11" class="st1" width="1" height="1"/>
<rect x="10" y="11" class="st5" width="1" height="1"/>
<rect x="11" y="11" class="st5" width="1" height="1"/>
<rect x="12" y="11" class="st5" width="1" height="1"/>
<rect x="13" y="11" class="st1" width="1" height="1"/>
<rect x="14" y="11" class="st1" width="1" height="1"/>
<rect x="15" y="11" class="st0" width="1" height="1"/>
<rect x="7" y="12" class="st0" width="1" height="1"/>
<rect x="8" y="12" class="st0" width="1" height="1"/>
<rect x="9" y="12" class="st0" width="1" height="1"/>
<rect x="10" y="12" class="st5" width="1" height="1"/>
<rect x="11" y="12" class="st5" width="1" height="1"/>
<rect x="12" y="12" class="st5" width="1" height="1"/>
<rect x="13" y="12" class="st1" width="1" height="1"/>
<rect x="14" y="12" class="st0" width="1" height="1"/>
<rect x="15" y="12" class="st0" width="1" height="1"/>
<rect x="10" y="13" class="st0" width="1" height="1"/>
<rect x="11" y="13" class="st0" width="1" height="1"/>
<rect x="12" y="13" class="st0" width="1" height="1"/>
<rect x="13" y="13" class="st0" width="1" height="1"/>
<rect x="2" y="29" class="st0" width="1" height="1"/>
<rect x="3" y="29" class="st3" width="1" height="1"/>
<rect x="4" y="29" class="st3" width="1" height="1"/>
<rect x="5" y="29" class="st3" width="1" height="1"/>
<rect x="6" y="29" class="st3" width="1" height="1"/>
<rect x="7" y="29" class="st3" width="1" height="1"/>
<rect x="8" y="29" class="st0" width="1" height="1"/>
<rect x="9" y="29" class="st0" width="1" height="1"/>
<rect x="10" y="29" class="st0" width="1" height="1"/>
<rect x="11" y="29" class="st3" width="1" height="1"/>
<rect x="12" y="29" class="st3" width="1" height="1"/>
<rect x="13" y="29" class="st3" width="1" height="1"/>
<rect x="14" y="29" class="st3" width="1" height="1"/>
<rect x="15" y="29" class="st0" width="1" height="1"/>
<rect x="2" y="30" class="st0" width="1" height="1"/>
<rect x="3" y="30" class="st3" width="1" height="1"/>
<rect x="4" y="30" class="st3" width="1" height="1"/>
<rect x="5" y="30" class="st3" width="1" height="1"/>
<rect x="6" y="30" class="st3" width="1" height="1"/>
<rect x="7" y="30" class="st3" width="1" height="1"/>
<rect x="8" y="30" class="st0" width="1" height="1"/>
<rect x="9" y="30" class="st0" width="1" height="1"/>
<rect x="10" y="30" class="st0" width="1" height="1"/>
<rect x="11" y="30" class="st3" width="1" height="1"/>
<rect x="12" y="30" class="st3" width="1" height="1"/>
<rect x="13" y="30" class="st3" width="1" height="1"/>
<rect x="14" y="30" class="st3" width="1" height="1"/>
<rect x="15" y="30" class="st0" width="1" height="1"/>
<rect x="2" y="31" class="st0" width="1" height="1"/>
<rect x="3" y="31" class="st3" width="1" height="1"/>
<rect x="4" y="31" class="st3" width="1" height="1"/>
<rect x="5" y="31" class="st3" width="1" height="1"/>
<rect x="6" y="31" class="st3" width="1" height="1"/>
<rect x="7" y="31" class="st3" width="1" height="1"/>
<rect x="8" y="31" class="st0" width="1" height="1"/>
<rect x="10" y="31" class="st0" width="1" height="1"/>
<rect x="11" y="31" class="st3" width="1" height="1"/>
<rect x="12" y="31" class="st3" width="1" height="1"/>
<rect x="13" y="31" class="st3" width="1" height="1"/>
<rect x="14" y="31" class="st3" width="1" height="1"/>
<rect x="15" y="31" class="st0" width="1" height="1"/>
<rect x="2" y="32" class="st0" width="1" height="1"/>
<rect x="3" y="32" class="st3" width="1" height="1"/>
<rect x="4" y="32" class="st3" width="1" height="1"/>
<rect x="5" y="32" class="st3" width="1" height="1"/>
<rect x="6" y="32" class="st3" width="1" height="1"/>
<rect x="7" y="32" class="st0" width="1" height="1"/>
<rect x="10" y="32" class="st0" width="1" height="1"/>
<rect x="11" y="32" class="st3" width="1" height="1"/>
<rect x="12" y="32" class="st3" width="1" height="1"/>
<rect x="13" y="32" class="st3" width="1" height="1"/>
<rect x="14" y="32" class="st0" width="1" height="1"/>
<rect x="2" y="33" class="st0" width="1" height="1"/>
<rect x="3" y="33" class="st3" width="1" height="1"/>
<rect x="4" y="33" class="st3" width="1" height="1"/>
<rect x="5" y="33" class="st3" width="1" height="1"/>
<rect x="6" y="33" class="st3" width="1" height="1"/>
<rect x="7" y="33" class="st0" width="1" height="1"/>
<rect x="10" y="33" class="st0" width="1" height="1"/>
<rect x="11" y="33" class="st3" width="1" height="1"/>
<rect x="12" y="33" class="st3" width="1" height="1"/>
<rect x="13" y="33" class="st3" width="1" height="1"/>
<rect x="14" y="33" class="st0" width="1" height="1"/>
<rect x="1" y="34" class="st0" width="1" height="1"/>
<rect x="2" y="34" class="st0" width="1" height="1"/>
<rect x="3" y="34" class="st3" width="1" height="1"/>
<rect x="4" y="34" class="st3" width="1" height="1"/>
<rect x="5" y="34" class="st0" width="1" height="1"/>
<rect x="6" y="34" class="st0" width="1" height="1"/>
<rect x="10" y="34" class="st0" width="1" height="1"/>
<rect x="11" y="34" class="st0" width="1" height="1"/>
<rect x="12" y="34" class="st3" width="1" height="1"/>
<rect x="13" y="34" class="st3" width="1" height="1"/>
<rect x="14" y="34" class="st0" width="1" height="1"/>
<rect x="1" y="35" class="st0" width="1" height="1"/>
<rect x="2" y="35" class="st0" width="1" height="1"/>
<rect x="3" y="35" class="st0" width="1" height="1"/>
<rect x="4" y="35" class="st3" width="1" height="1"/>
<rect x="5" y="35" class="st3" width="1" height="1"/>
<rect x="6" y="35" class="st0" width="1" height="1"/>
<rect x="9" y="35" class="st0" width="1" height="1"/>
<rect x="10" y="35" class="st3" width="1" height="1"/>
<rect x="11" y="35" class="st3" width="1" height="1"/>
<rect x="12" y="35" class="st3" width="1" height="1"/>
<rect x="13" y="35" class="st0" width="1" height="1"/>
<rect x="1" y="36" class="st0" width="1" height="1"/>
<rect x="2" y="36" class="st3" width="1" height="1"/>
<rect x="3" y="36" class="st3" width="1" height="1"/>
<rect x="4" y="36" class="st3" width="1" height="1"/>
<rect x="5" y="36" class="st3" width="1" height="1"/>
<rect x="6" y="36" class="st0" width="1" height="1"/>
<rect x="9" y="36" class="st0" width="1" height="1"/>
<rect x="10" y="36" class="st3" width="1" height="1"/>
<rect x="11" y="36" class="st3" width="1" height="1"/>
<rect x="12" y="36" class="st3" width="1" height="1"/>
<rect x="13" y="36" class="st0" width="1" height="1"/>
<rect x="1" y="37" class="st0" width="1" height="1"/>
<rect x="2" y="37" class="st3" width="1" height="1"/>
<rect x="3" y="37" class="st3" width="1" height="1"/>
<rect x="4" y="37" class="st3" width="1" height="1"/>
<rect x="5" y="37" class="st0" width="1" height="1"/>
<rect x="9" y="37" class="st0" width="1" height="1"/>
<rect x="10" y="37" class="st0" width="1" height="1"/>
<rect x="11" y="37" class="st0" width="1" height="1"/>
<rect x="12" y="37" class="st0" width="1" height="1"/>
<rect x="13" y="37" class="st0" width="1" height="1"/>
<rect y="38" class="st6" width="1" height="1"/>
<rect x="1" y="38" class="st0" width="1" height="1"/>
<rect x="2" y="38" class="st0" width="1" height="1"/>
<rect x="3" y="38" class="st0" width="1" height="1"/>
<rect x="4" y="38" class="st0" width="1" height="1"/>
<rect x="5" y="38" class="st0" width="1" height="1"/>
<rect x="9" y="38" class="st0" width="1" height="1"/>
<rect x="10" y="38" class="st0" width="1" height="1"/>
<rect x="11" y="38" class="st0" width="1" height="1"/>
<rect x="12" y="38" class="st3" width="1" height="1"/>
<rect x="13" y="38" class="st3" width="1" height="1"/>
<rect x="14" y="38" class="st0" width="1" height="1"/>
<rect y="39" class="st0" width="1" height="1"/>
<rect x="1" y="39" class="st0" width="1" height="1"/>
<rect x="2" y="39" class="st3" width="1" height="1"/>
<rect x="3" y="39" class="st3" width="1" height="1"/>
<rect x="4" y="39" class="st0" width="1" height="1"/>
<rect x="5" y="39" class="st0" width="1" height="1"/>
<rect x="9" y="39" class="st0" width="1" height="1"/>
<rect x="10" y="39" class="st0" width="1" height="1"/>
<rect x="11" y="39" class="st0" width="1" height="1"/>
<rect x="12" y="39" class="st0" width="1" height="1"/>
<rect x="13" y="39" class="st3" width="1" height="1"/>
<rect x="14" y="39" class="st3" width="1" height="1"/>
<rect x="15" y="39" class="st0" width="1" height="1"/>
<rect y="40" class="st0" width="1" height="1"/>
<rect x="1" y="40" class="st3" width="1" height="1"/>
<rect x="2" y="40" class="st3" width="1" height="1"/>
<rect x="3" y="40" class="st3" width="1" height="1"/>
<rect x="4" y="40" class="st3" width="1" height="1"/>
<rect x="5" y="40" class="st0" width="1" height="1"/>
<rect x="9" y="40" class="st0" width="1" height="1"/>
<rect x="10" y="40" class="st0" width="1" height="1"/>
<rect x="11" y="40" class="st0" width="1" height="1"/>
<rect x="12" y="40" class="st0" width="1" height="1"/>
<rect x="13" y="40" class="st0" width="1" height="1"/>
<rect x="14" y="40" class="st0" width="1" height="1"/>
<rect x="15" y="40" class="st0" width="1" height="1"/>
<rect y="41" class="st0" width="1" height="1"/>
<rect x="1" y="41" class="st0" width="1" height="1"/>
<rect x="2" y="41" class="st0" width="1" height="1"/>
<rect x="3" y="41" class="st0" width="1" height="1"/>
<rect x="4" y="41" class="st0" width="1" height="1"/>
<rect x="5" y="41" class="st0" width="1" height="1"/>
</svg>
