<?xml version="1.0" encoding="utf-8"?>
<!-- Generator: Adobe Illustrator 24.0.1, SVG Export Plug-In . SVG Version: 6.00 Build 0)  -->
<svg version="1.1" id="Calque_1" xmlns="http://www.w3.org/2000/svg" xmlns:xlink="http://www.w3.org/1999/xlink" x="0px" y="0px"
	 viewBox="0 0 1131 188" style="enable-background:new 0 0 1131 188;" xml:space="preserve" preserveAspectRatio="none">
<style type="text/css">
	.st0{fill:#AEADAE;}
	.st1{fill:#343334;}
</style>
<g>
	<rect x="1120.9" y="99.4" class="st0" width="9.9" height="9.9"/>
	<rect x="1120.9" y="89.6" class="st0" width="9.9" height="9.9"/>
	<rect x="1120.9" y="79.7" class="st0" width="9.9" height="9.9"/>
	<rect x="1120.9" y="69.8" class="st0" width="9.9" height="9.9"/>
	<rect x="1120.9" y="59.9" class="st0" width="9.9" height="9.9"/>
	<rect x="1120.9" y="50.1" class="st0" width="9.9" height="9.9"/>
	<rect x="1111.1" y="109.3" class="st0" width="9.9" height="9.9"/>
	<rect x="1111.1" y="99.4" class="st1" width="9.9" height="9.9"/>
	<rect x="1111.1" y="89.6" class="st1" width="9.9" height="9.9"/>
	<rect x="1111.1" y="79.7" class="st1" width="9.9" height="9.9"/>
	<rect x="1111.1" y="69.8" class="st1" width="9.9" height="9.9"/>
	<rect x="1111.1" y="59.9" class="st1" width="9.9" height="9.9"/>
	<rect x="1111.1" y="50.1" class="st1" width="9.9" height="9.9"/>
	<rect x="1111.1" y="40.2" class="st1" width="9.9" height="9.9"/>
	<rect x="1111.1" y="30.3" class="st0" width="9.9" height="9.9"/>
	<rect x="1101.2" y="119.2" class="st0" width="9.9" height="9.9"/>
	<rect x="1101.2" y="109.3" class="st1" width="9.9" height="9.9"/>
	<rect x="1101.2" y="30.3" class="st1" width="9.9" height="9.9"/>
	<rect x="1101.2" y="20.4" class="st0" width="9.9" height="9.9"/>
	<rect x="1091.3" y="129.1" class="st0" width="9.9" height="9.9"/>
	<rect x="1091.3" y="119.2" class="st1" width="9.9" height="9.9"/>
	<rect x="1091.3" y="20.4" class="st1" width="9.9" height="9.9"/>
	<rect x="1091.3" y="10.6" class="st0" width="9.9" height="9.9"/>
	<rect x="1081.4" y="178.4" class="st0" width="9.9" height="9.9"/>
	<rect x="1081.4" y="168.6" class="st0" width="9.9" height="9.9"/>
	<rect x="1081.4" y="158.7" class="st0" width="9.9" height="9.9"/>
	<rect x="1081.4" y="148.8" class="st0" width="9.9" height="9.9"/>
	<rect x="1081.4" y="138.9" class="st0" width="9.9" height="9.9"/>
	<rect x="1081.4" y="129.1" class="st1" width="9.9" height="9.9"/>
	<rect x="1081.4" y="10.6" class="st1" width="9.9" height="9.9"/>
	<rect x="1071.6" y="178.4" class="st1" width="9.9" height="9.9"/>
	<rect x="1071.6" y="168.6" class="st1" width="9.9" height="9.9"/>
	<rect x="1071.6" y="158.7" class="st1" width="9.9" height="9.9"/>
	<rect x="1071.6" y="148.8" class="st1" width="9.9" height="9.9"/>
	<rect x="1071.6" y="138.9" class="st1" width="9.9" height="9.9"/>
	<rect x="1071.6" y="0.7" class="st1" width="9.9" height="9.9"/>
	<rect x="1061.7" y="168.6" class="st1" width="9.9" height="9.9"/>
	<rect x="1061.7" y="0.7" class="st1" width="9.9" height="9.9"/>
	<rect x="1051.8" y="158.7" class="st1" width="9.9" height="9.9"/>
	<rect x="1051.8" y="0.7" class="st1" width="9.9" height="9.9"/>
	<rect x="1041.9" y="148.8" class="st1" width="9.9" height="9.9"/>
	<rect x="1041.9" y="0.7" class="st1" width="9.9" height="9.9"/>
	<rect x="69.3" y="148.8" class="st0" width="9.9" height="9.9"/>
	<rect x="69.3" y="138.9" class="st1" width="9.9" height="9.9"/>
	<rect x="69.3" y="0.7" class="st1" width="9.9" height="9.9"/>
	<rect x="59.4" y="148.8" class="st0" width="9.9" height="9.9"/>
	<rect x="59.4" y="138.9" class="st1" width="9.9" height="9.9"/>
	<rect x="59.4" y="0.7" class="st1" width="9.9" height="9.9"/>
	<rect x="49.6" y="148.8" class="st0" width="9.9" height="9.9"/>
	<rect x="49.6" y="138.9" class="st1" width="9.9" height="9.9"/>
	<rect x="49.6" y="0.7" class="st1" width="9.9" height="9.9"/>
	<rect x="39.7" y="138.9" class="st1" width="9.9" height="9.9"/>
	<rect x="39.7" y="0.7" class="st1" width="9.9" height="9.9"/>
	<rect x="29.8" y="138.9" class="st0" width="9.9" height="9.9"/>
	<rect x="29.8" y="129.1" class="st1" width="9.9" height="9.9"/>
	<rect x="29.8" y="10.6" class="st1" width="9.9" height="9.9"/>
	<rect x="19.9" y="129.1" class="st0" width="9.9" height="9.9"/>
	<rect x="19.9" y="119.2" class="st1" width="9.9" height="9.9"/>
	<rect x="19.9" y="20.4" class="st1" width="9.9" height="9.9"/>
	<rect x="10" y="119.2" class="st0" width="9.9" height="9.9"/>
	<rect x="10" y="109.3" class="st1" width="9.9" height="9.9"/>
	<rect x="10" y="30.3" class="st1" width="9.9" height="9.9"/>
	<rect x="0.2" y="99.4" class="st1" width="9.9" height="9.9"/>
	<rect x="0.2" y="89.6" class="st1" width="9.9" height="9.9"/>
	<rect x="0.2" y="79.7" class="st1" width="9.9" height="9.9"/>
	<rect x="0.2" y="69.8" class="st1" width="9.9" height="9.9"/>
	<rect x="0.2" y="59.9" class="st1" width="9.9" height="9.9"/>
	<rect x="0.2" y="50.1" class="st1" width="9.9" height="9.9"/>
	<rect x="0.2" y="40.2" class="st1" width="9.9" height="9.9"/>
	<rect x="118.8" y="148.6" class="st0" width="9.9" height="9.9"/>
	<rect x="118.8" y="138.8" class="st1" width="9.9" height="9.9"/>
	<rect x="118.8" y="0.5" class="st1" width="9.9" height="9.9"/>
	<rect x="108.9" y="148.6" class="st0" width="9.9" height="9.9"/>
	<rect x="108.9" y="138.8" class="st1" width="9.9" height="9.9"/>
	<rect x="108.9" y="0.5" class="st1" width="9.9" height="9.9"/>
	<rect x="99" y="148.6" class="st0" width="9.9" height="9.9"/>
	<rect x="99" y="138.8" class="st1" width="9.9" height="9.9"/>
	<rect x="99" y="0.5" class="st1" width="9.9" height="9.9"/>
	<rect x="89.1" y="148.6" class="st0" width="9.9" height="9.9"/>
	<rect x="89.1" y="138.8" class="st1" width="9.9" height="9.9"/>
	<rect x="89.1" y="0.5" class="st1" width="9.9" height="9.9"/>
	<rect x="79.3" y="148.6" class="st0" width="9.9" height="9.9"/>
	<rect x="79.3" y="138.8" class="st1" width="9.9" height="9.9"/>
	<rect x="79.3" y="0.5" class="st1" width="9.9" height="9.9"/>
	<rect x="69.4" y="138.8" class="st1" width="9.9" height="9.9"/>
	<rect x="69.4" y="0.5" class="st1" width="9.9" height="9.9"/>
	<rect x="885.7" y="148.6" class="st0" width="156.3" height="9.9"/>
	<rect x="885.7" y="138.8" class="st1" width="156.3" height="9.9"/>
	<rect x="885.7" y="0.5" class="st1" width="156.3" height="9.9"/>
	<rect x="729.5" y="148.6" class="st0" width="156.2" height="9.9"/>
	<rect x="729.5" y="138.8" class="st1" width="156.2" height="9.9"/>
	<rect x="729.5" y="0.5" class="st1" width="156.2" height="9.9"/>
	<rect x="573.2" y="148.6" class="st0" width="156.3" height="9.9"/>
	<rect x="573.2" y="138.8" class="st1" width="156.3" height="9.9"/>
	<rect x="573.2" y="0.5" class="st1" width="156.3" height="9.9"/>
	<rect x="417" y="148.6" class="st0" width="156.2" height="9.9"/>
	<rect x="417" y="138.8" class="st1" width="156.2" height="9.9"/>
	<rect x="417" y="0.5" class="st1" width="156.2" height="9.9"/>
	<rect x="260.7" y="148.6" class="st0" width="156.3" height="9.9"/>
	<rect x="260.7" y="138.8" class="st1" width="156.3" height="9.9"/>
	<rect x="260.7" y="0.5" class="st1" width="156.3" height="9.9"/>
	<rect x="104.4" y="138.8" class="st1" width="156.3" height="9.9"/>
	<rect x="104.4" y="0.5" class="st1" width="156.3" height="9.9"/>
	<rect x="254.9" y="149.1" class="st0" width="36.1" height="9.9"/>
	<rect x="254.9" y="139.3" class="st1" width="36.1" height="9.9"/>
	<rect x="254.9" y="1" class="st1" width="36.1" height="9.9"/>
	<rect x="218.9" y="149.1" class="st0" width="36" height="9.9"/>
	<rect x="218.9" y="139.3" class="st1" width="36" height="9.9"/>
	<rect x="218.9" y="1" class="st1" width="36" height="9.9"/>
	<rect x="182.9" y="149.1" class="st0" width="36.1" height="9.9"/>
	<rect x="182.9" y="139.3" class="st1" width="36.1" height="9.9"/>
	<rect x="182.9" y="1" class="st1" width="36.1" height="9.9"/>
	<rect x="146.8" y="149.1" class="st0" width="36" height="9.9"/>
	<rect x="146.8" y="139.3" class="st1" width="36" height="9.9"/>
	<rect x="146.8" y="1" class="st1" width="36" height="9.9"/>
	<rect x="110.8" y="149.1" class="st0" width="36.1" height="9.9"/>
	<rect x="110.8" y="139.3" class="st1" width="36.1" height="9.9"/>
	<rect x="110.8" y="1" class="st1" width="36.1" height="9.9"/>
	<rect x="74.7" y="139.3" class="st1" width="36.1" height="9.9"/>
	<rect x="74.7" y="1" class="st1" width="36.1" height="9.9"/>
</g>
</svg>
